<svg width="176" height="175" viewBox="0 0 176 175" fill="none" xmlns="http://www.w3.org/2000/svg">
<path fill-rule="evenodd" clip-rule="evenodd" d="M143.529 138.745C142.795 139.895 142.312 140.148 141.739 141.684C140.186 145.844 138.152 145.858 134.911 149.192C133.205 150.948 130.953 152.347 129.891 153.426C124.996 158.398 117.957 161.358 111.072 162.909C107.324 163.753 104.882 163.555 102.828 163.828C100.147 164.184 97.2385 164.553 94.3296 164.934C90.2762 165.463 81.0928 164.878 76.9396 163.571C74.603 162.836 71.9304 162.453 69.6852 161.624C69.0495 161.389 68.5826 161.221 67.8563 161.017C67.4611 160.907 67.3205 160.898 66.9866 160.812C65.7081 160.481 66.7551 160.779 66.0539 160.503L58.8137 158.195C58.4296 158.027 57.5099 157.691 57.1086 157.466C55.8442 156.757 54.642 155.789 52.3851 154.993C48.3215 153.56 44.351 150.701 41.4232 147.248C39.6375 145.141 38.4045 145.246 35.1321 141.582L32.677 139.269C32.1861 138.747 31.7239 138.442 31.4271 138.119C30.9643 137.617 31.0195 137.505 30.3366 136.868C29.568 136.152 29.8832 136.22 29.2609 135.534C28.8612 135.093 28.4833 134.872 28.0275 134.381C27.5888 133.909 27.337 133.583 26.888 133.14C26.1063 132.368 25.4421 131.852 24.6761 130.88C23.8946 129.888 23.2389 128.957 22.555 128.237C20.9944 126.594 19.8992 124.436 18.8638 122.343C18.4003 121.406 17.7264 120.601 17.2636 119.511C15.1043 114.424 13.2047 110.812 12.656 105.208C12.5193 103.812 11.9655 103.353 11.8264 101.316C11.7331 99.9497 11.471 98.3181 11.3056 97.1052C10.262 89.4554 12.1808 77.5007 12.5249 69.9915C12.6028 68.3008 13.0765 67.5501 13.5306 66.364C15.0983 62.267 14.0977 62.303 17.4545 56.2335C18.7797 53.8377 20.5097 49.1225 21.8101 46.2786C22.2349 45.3495 22.7928 44.261 23.1375 43.1658C24.3362 39.3605 24.65 39.7401 25.7999 38.5959L29.6758 32.955C30.1432 32.334 30.3428 32.4074 30.7984 31.7053C34.5194 25.9671 32.757 29.4514 35.6505 26.9596C36.78 25.9868 35.4881 26.4509 37.9537 24.4863C41.269 21.8451 38.1321 23.6231 41.7945 21.4755L45.2557 17.8294C46.3152 15.7844 46.0625 16.6549 51.1502 14.4833C55.1937 12.7575 52.3068 13.9659 54.8138 13.8529C56.1102 13.7943 56.5848 12.942 58.403 12.7815C60.7447 12.575 60.0969 12.153 62.5289 10.9386C62.5952 10.9055 62.6789 10.8766 62.7431 10.8411C62.8047 10.8068 62.8779 10.7619 62.9372 10.7251C64.1847 9.95281 63.3696 9.98021 65.0118 10.0239C64.7599 11.1362 64.3125 11.4725 63.436 12.1038C62.7104 12.6261 58.9564 16.4516 58.7591 17.1348C61.2955 17.2585 64.814 14.8094 66.4382 14.1656C67.2948 13.8257 67.8935 13.5996 68.6977 13.1834C74.2951 10.2862 75.0875 11.8581 76.9368 11.3088C78.011 10.9896 78.6532 11.103 79.706 11.3619C79.8273 10.5293 80.0274 10.1749 80.3567 9.66072C86.0395 9.1998 82.277 9.26421 88.822 9.18289C92.1563 9.14116 94.6131 9.50901 97.4989 9.93869C115.457 12.6109 110.139 10.4223 128.295 17.083L134.733 20.2224C135.385 20.5916 135.424 20.855 136.016 21.3403C140.03 24.6301 146.311 29.919 149.23 34.0519C156.887 44.8948 159.724 45.0452 162.087 58.7275C162.539 61.3452 163.304 63.8826 163.639 66.7254C164.947 77.823 165.928 78.4217 163.298 92.3019C161.832 100.035 159.579 103.529 157.425 110.052L148.428 129.671C148.137 130.584 147.464 131.887 147.078 132.718L145.513 135.962C145.188 136.695 144.102 137.849 143.529 138.745ZM87.0313 0.509403C86.2616 1.24102 84.3026 1.41606 84.254 1.39873L86.1318 1.72805C86.0755 1.76657 85.9884 1.79846 85.936 1.84232L84.1766 3.65008C84.1526 3.59701 84.0987 3.78831 84.0507 3.85122C81.8762 3.95864 82.4033 4.2732 81.665 5.28471C80.8512 4.84005 80.205 5.06003 78.9652 5.04911C76.3053 5.02558 78.3061 5.04997 76.7679 4.28304C75.928 4.56657 76.5749 4.96673 75.1053 4.67485C74.7783 4.60959 75.4085 4.49831 74.3204 4.57407C71.7068 3.97705 71.0819 4.72664 69.1791 4.6297C67.2982 4.53427 66.1803 4.3757 64.0561 4.50773C62.3081 4.61622 62.2351 4.87086 59.8431 5.44649C58.6326 5.73772 57.3365 6.52283 56.0644 7.08669C52.4555 8.6873 51.8084 7.60946 48.6166 10.4152C46.3918 12.3715 41.007 12.321 37.9012 15.7912L32.2129 20.8665C31.2386 21.7777 30.2679 22.337 29.2851 23.2978L23.8599 28.5918C19.179 33.2178 20.1592 32.2467 16.2418 36.8061C14.39 38.962 12.0864 44.2599 10.6591 47.3385C7.3402 54.4976 7.38578 53.9779 4.29925 62.4727C-0.945976 76.9095 -1.45141 103.806 3.11184 119.654C3.9344 122.51 4.62194 125.174 5.75713 127.699C6.32163 128.955 6.69931 130.139 7.43157 131.386C9.24938 134.483 11.2059 138.531 13.6879 141.269L18.7917 146.879C21.9749 150.408 31.4292 159.745 35.728 161.896C40.8461 164.457 44.7927 167.345 50.1682 168.972C58.4651 171.482 67.558 174.928 76.5955 174.815C83.4394 174.729 89.6176 174.477 95.9068 172.806C98.7894 172.04 102.002 171.851 105.187 171.331C108.213 170.836 119.042 167.747 122.023 166.727L129.558 163.521C131.911 162.322 136.893 158.363 138.637 156.487C139.735 155.306 140.367 154.94 141.561 154.056C145.965 150.797 147.728 147.955 150.608 144.306C151.128 143.648 151.243 143.422 151.617 142.943L154.115 140.064C156.834 136.38 158.076 134.531 160.303 130.129C168.19 114.537 173.743 99.333 175.387 81.031C175.999 74.2254 174.907 68.0586 173.915 61.6386C173.354 58.0147 171.082 47.7123 169.73 44.249C167.679 38.9937 160.248 29.6061 156.524 25.2659C153.808 22.0997 145.078 13.3742 141.378 11.1742L138.03 9.1677L116.242 1.82349C108.34 0.549631 94.6745 -0.741558 87.0313 0.509403Z" fill="#1D1D1D"/>
<path fill-rule="evenodd" clip-rule="evenodd" d="M107.873 128.629L108.115 129.181C108.123 129.244 108.158 129.355 108.153 129.416C108.041 130.693 108.359 129.077 106.601 130.43L106.193 130.696C105.705 130.983 105.294 131.16 104.329 131.066C104.217 131.661 104.021 131.702 103.734 131.782C103.656 131.804 103.543 131.843 103.451 131.868L100.93 132.827C102.892 132.356 102.248 133.229 102.361 133.303C101.828 133.546 100.846 134.249 100.297 134.021C99.2324 133.581 97.308 133.479 95.9809 133.526L96.5758 132.924C95.4596 133.047 96.2107 133.257 94.7473 133.036C90.2471 132.451 85.3227 136.082 71.8101 132.077C70.673 131.74 70.0107 131.852 68.8295 131.836C66.1846 131.801 60.1057 127.457 57.8578 126.277L51.0729 119.995C50.1875 118.985 50.4288 119.584 49.6741 118.122C48.7914 116.413 43.9772 112.483 43.3992 111.197C42.9853 110.277 42.8582 109.892 42.1683 109.208C41.1817 108.229 39.8207 106.953 39.6016 105.168C39.2117 101.991 36.3383 99.5519 35.9869 99.0007C35.4635 98.1801 35.7558 97.3218 35.4761 96.2919L32.7369 92.2779L31.0255 93.2685C31.3225 94.07 30.9747 93.4082 31.4359 93.9845L31.9336 94.4614C31.8754 96.1222 31.5461 98.4792 31.9927 100.005C32.5313 101.843 32.2199 103.009 32.6759 104.679C33.4439 107.487 34.9155 109.741 35.6769 112.699C36.7892 117.019 41.6434 123.575 44.4954 125.971L53.6359 133.511C59.1854 138.107 65.7517 140.357 73.0041 141.209C81.7857 142.241 82.0908 143.465 93.2106 141.84C95.2471 141.542 96.1872 141.239 98.0065 140.87C99.4661 140.574 101.107 140.552 102.636 140.235C104.21 139.909 105.06 139.23 106.525 138.721C109.912 137.544 113.939 136.682 116.087 134.535C117.041 133.58 119.944 132.821 121.826 130.466C123.451 128.431 128.503 125.435 130.03 122.253C130.8 120.65 131.077 121.337 131.771 120.131C131.959 119.803 132.678 116.213 132.68 115.634C132.069 112.987 128.547 112.175 126.777 113.121C126.277 113.621 125.562 115.017 125.092 115.807C124.52 116.766 123.875 117.336 123.15 118.051C121.631 119.549 120.129 120.641 118.502 122.04C116.662 123.623 114.067 125.088 111.905 126.485C111.401 126.811 111.055 126.878 110.512 127.187C109.555 127.733 108.863 128.13 107.873 128.629Z" fill="#1D1D1D"/>
<path fill-rule="evenodd" clip-rule="evenodd" d="M108.082 57.2846L107.474 59.7655L105.338 60.3448C105.778 62.0468 106.216 63.6886 105.503 65.2252C104.65 67.0646 104.959 67.9719 104.402 69.4916C103.622 71.6193 103.554 71.5754 103.935 73.9993C104.143 75.3255 103.515 77.1829 103.44 78.4166C107.453 80.2727 106.952 83.8593 109.563 84.4726C116.201 86.0315 114.598 85.1971 119.262 83.4951C121.145 82.8076 121.116 82.7339 122.022 81.7417L123.428 80.1526C124.559 78.6641 124.254 78.9068 125.149 77.1102C126.185 75.0319 127.961 70.1024 128.09 67.6873C128.267 64.3772 128.236 60.4957 127.167 57.3419C126.935 56.6598 125.802 53.203 125.598 52.8825C124.34 50.902 125.747 50.9686 122.949 49.2965C120.947 48.1008 120.903 49.2794 118.334 49.2933C117.283 49.2993 114.465 50.1978 113.725 50.7801C113.495 50.9622 112.744 51.9893 112.42 52.4703C111.498 53.8377 111.833 52.9475 110.883 53.8908C110.417 54.3534 110.178 54.9419 109.746 55.7471C109.062 57.0193 108.99 56.5547 108.082 57.2846Z" fill="#1D1D1D"/>
<path fill-rule="evenodd" clip-rule="evenodd" d="M52.4889 64.6374L53.7574 65.3412C53.9504 68.6977 55.5247 70.2042 56.9424 72.3575C58.4313 74.6189 59.3054 76.4342 63.1694 76.6617C66.4765 76.8566 70.0323 76.6773 71.8313 74.7854C72.9436 73.6158 71.5773 74.2434 73.9069 71.8018C74.7869 70.8793 75.4299 69.5473 75.8959 68.4108C76.8899 65.9853 78.0983 63.7765 77.9864 60.2671C77.754 52.98 76.6881 53.7144 76.0995 51.6993C75.4466 49.4634 76.1288 50.137 74.7394 47.9989C73.5706 46.2016 74.25 46.2438 72.5922 44.7884C71.0357 43.4221 73.1715 44.4486 69.9756 42.324C64.8299 38.903 66.8411 41.483 63.1781 42.3364C61.2831 42.7781 61.1634 42.7765 60.0137 43.8921C57.9111 45.9328 57.9847 46.9895 56.3894 49.8009C55.2728 51.7685 54.5744 54.3699 54.1462 56.7821C53.9038 58.148 53.7657 59.6294 53.5023 60.9641C53.2226 62.3811 52.4959 63.0851 52.4889 64.6374Z" fill="#1D1D1D"/>
<path fill-rule="evenodd" clip-rule="evenodd" d="M74.3204 4.57407C75.4085 4.49831 74.7783 4.60959 75.1053 4.67485C76.5749 4.96673 75.928 4.56657 76.7679 4.28304C78.3061 5.04997 76.3053 5.02558 78.9652 5.04911C80.205 5.06003 80.8512 4.84005 81.665 5.28471C82.4033 4.2732 81.8762 3.95864 84.0507 3.85122C84.0987 3.78831 84.1526 3.59701 84.1766 3.65008L85.936 1.84232C85.9884 1.79846 86.0755 1.76657 86.1318 1.72805L84.254 1.39873C84.3026 1.41606 86.2616 1.24102 87.0313 0.509403C84.3221 0.708196 77.935 2.30217 75.4712 3.60085C74.2968 4.2197 74.6234 4.1844 74.3204 4.57407Z" fill="#1D1D1D"/>
<path fill-rule="evenodd" clip-rule="evenodd" d="M94.7473 133.036C96.2107 133.257 95.4596 133.047 96.5758 132.924L95.9809 133.526C97.308 133.479 99.2324 133.581 100.297 134.021C100.846 134.249 101.828 133.546 102.361 133.303C102.248 133.229 102.892 132.356 100.93 132.827L103.451 131.868C103.543 131.843 103.656 131.804 103.734 131.782C104.021 131.702 104.217 131.661 104.329 131.066C105.294 131.16 105.705 130.983 106.193 130.696L106.601 130.43C108.359 129.077 108.041 130.693 108.153 129.416C108.158 129.355 108.123 129.244 108.115 129.181L107.873 128.629L94.7473 133.036Z" fill="#1D1D1D"/>
</svg>
