<svg width="372" height="136" viewBox="0 0 372 136" fill="none" xmlns="http://www.w3.org/2000/svg">
<path fill-rule="evenodd" clip-rule="evenodd" d="M304.759 28.5666C313.546 27.7039 327.617 27.2204 335.97 27.9918C341.394 27.7589 349.284 28.0053 354.59 28.852L360.86 29.6459C360.805 29.6563 361.094 29.6873 361.204 29.7262C361.74 30.0772 362.219 30.5672 362.646 31.1757C362.671 31.211 362.696 31.2468 362.72 31.2829C363.085 31.8219 363.412 32.4488 363.705 33.1505C364.447 34.9287 364.971 37.1869 365.346 39.7083C365.449 40.4031 365.542 41.1179 365.624 41.8482C366.624 50.75 366.156 61.9493 366.832 67.2377C367.445 72.0341 369.243 93.1847 366.996 97.4402C366.959 97.5097 366.923 97.5774 366.887 97.6434C366.843 97.7246 366.801 97.8033 366.758 97.8799C366.188 98.9165 365.75 99.5736 365.117 100.94C364.392 102.507 363.559 101.305 363.559 101.305C363.559 101.305 363.075 102.322 359.743 101.608C357.248 101.073 355.781 101.293 353.291 101.526C350.743 101.765 352.369 101.418 350.054 101.092L339.442 101.305L305.019 100.926C303.344 100.94 301.496 101.227 300.512 100.3C299.299 99.1569 301.811 100.568 298.449 97.4273C298.83 95.5167 298.835 95.0133 298.674 93.1115C298.567 91.8509 298.744 92.5717 298.723 91.7481C298.671 89.8308 297.835 91.5133 298.559 89.3729C298.827 88.5811 298.536 89.9619 298.886 88.5441C299.463 86.2091 299.353 64.7336 299.288 62.8828L298.518 41.4494L298.181 40.9747C298.174 40.9613 298.164 40.9443 298.153 40.9252C298.152 40.923 298.15 40.9208 298.149 40.9186C298.145 40.9124 298.142 40.9061 298.138 40.8996C298.134 40.8941 298.131 40.8884 298.128 40.8826L298.127 40.8817C298.12 40.8694 298.112 40.8567 298.105 40.844C298.078 40.799 298.051 40.7531 298.036 40.719L297.141 31.2889C297.236 31.2177 297.273 31.1366 297.453 31.1066C298.161 30.9881 299.852 29.0486 304.759 28.5666ZM342.907 47.5014C339.702 46.8553 323.57 46.2502 320.356 46.6907C320.312 50.3038 320.688 54.2248 321.054 58.0361C321.258 60.1596 321.458 62.2491 321.581 64.2323C321.594 64.4492 321.605 64.6989 321.612 64.977C321.65 66.354 321.624 68.4293 321.594 70.682C321.587 71.253 321.579 71.8355 321.573 72.4209C321.527 76.4517 321.522 80.6207 321.891 82.1562C321.897 82.1821 321.903 82.2071 321.91 82.2315C321.932 82.3176 321.956 82.3942 321.982 82.4607L324.309 82.4554L344.493 82.4717C344.732 81.2687 342.981 47.6685 342.907 47.5014Z" fill="#465830"/>
<path fill-rule="evenodd" clip-rule="evenodd" d="M185.378 28.8229C191.898 28.6787 201.95 27.1726 207.704 27.7917C212.23 28.2785 211.383 29.7399 213.205 33.4548C214.05 35.1788 216.334 39.1635 216.575 40.9948L216.591 41.1654L216.775 41.3505C218.637 43.3165 219.225 46.9477 220.221 49.768L226.99 67.2258C227.54 68.534 228.177 69.9296 228.721 71.2593C230.223 74.9231 230.902 74.7706 230.99 74.7232L230.993 74.7209C231 74.7166 231.002 74.7145 230.999 74.7165C230.996 74.7179 230.994 74.7194 230.993 74.7209L230.99 74.7232C230.95 74.7715 231.254 74.8651 231.385 74.9051C230.775 72.6502 232.741 55.183 233.26 51.6509C233.814 47.8842 233.978 43.3625 234.338 40.0944C234.593 37.7732 234.398 35.8873 234.511 33.6417C234.624 31.4032 235.214 31.4745 235.122 30.226L234.94 29.6631C238.251 28.5698 247.161 27.5924 250.967 27.9918C252.661 28.1695 253.07 28.508 253.718 29.7915C257.412 37.0997 255.185 40.0344 254.374 47.3795C253.474 55.5202 252.626 61.6218 252.25 70.2455C251.936 77.4362 250.76 89.1369 247.782 95.9298C247.196 97.2691 246.941 97.6423 245.78 98.0888C245.669 98.1316 245.554 98.1737 245.436 98.2151C241.705 99.524 234.8 100.134 230.799 99.5064C227.57 99.0006 225.522 99.0909 223.072 99.9566C220.22 100.965 218.635 99.2067 217.183 98.4413C218.515 97.0716 218.331 98.2731 218.164 96.5572C218.023 95.1103 217.572 95.623 217.672 93.8805L206.02 68.7965C205.986 70.2784 206.108 75.8454 205.393 77.3299L205.321 77.4606C205.907 81.1241 205.747 88.0441 205.523 91.9301C205.349 94.9396 204.985 96.6074 203.914 97.5141C202.782 98.4727 200.86 98.5806 197.54 98.5233C193.497 98.4536 193.439 99.5102 191.128 99.7559C189.312 99.9482 186.395 99.6324 185.149 98.8663C185.11 98.8428 185.074 98.8189 185.039 98.7945C183.114 97.4551 183.409 95.7787 183.431 92.865C183.449 90.5388 183.455 88.1898 183.448 85.8614C183.399 71.6489 184.914 57.0298 184.507 43.8294C184.254 35.5956 182.615 35.0889 182.027 32.0312C182.71 31.6778 184.119 31.4005 184.803 30.9837C186.358 30.0351 185.676 29.9197 185.378 28.8229Z" fill="#465830"/>
<path fill-rule="evenodd" clip-rule="evenodd" d="M163.951 29.637C165.796 33.4542 166.131 30.2424 168.711 31.566C174.622 34.598 172.484 35.0729 172.296 37.7142C172.219 38.7946 172.462 40.2225 172.548 41.3299C173.065 47.9532 171.917 54.1816 171.562 60.9944C171.09 70.055 173.229 78.0558 171.454 87.4493C171.401 87.7308 171.303 88.2738 171.177 88.9786C171.105 89.3799 171.024 89.8335 170.936 90.3212C170.322 93.7351 169.383 98.8152 169.076 99.2425C167.764 101.063 159.229 100.901 156.325 100.678C153.087 100.429 152.724 100.752 150.517 98.993C148.562 97.4344 147.561 97.9694 146.978 95.5447C146.27 92.6059 147.333 86.148 148.277 83.199L130.799 83.1344C131.016 85.6087 131.076 94.5942 129.896 95.7684C129.845 95.8198 129.787 95.8699 129.725 95.9188C128.773 96.6661 126.64 97.1038 125.22 96.8532C125.148 96.8408 125.022 96.8165 124.946 96.8051C122.057 96.365 122.453 96.997 121.395 97.7268C118.915 96.9111 117.455 97.3195 114.626 96.956C110.73 96.4554 111.098 96.5176 109.659 97.3235C109.34 94.0218 108.398 93.9389 108.412 89.8274C108.44 81.6343 109.281 74.1172 109.345 65.3479C109.386 59.6963 109.42 54.1519 109.276 48.4966C109.105 41.744 107.709 38.9919 108.869 36.1791C109.466 34.7307 109.036 34.4919 109.407 33.9618C112.448 29.6178 143.106 29.5753 150.662 30.0303C159.228 30.5459 156.95 31.3628 163.951 29.637ZM131.53 50.9159C131.512 52.4922 131.602 54.1107 131.691 55.707C131.749 56.7586 131.807 57.8006 131.833 58.8146C131.889 61.0162 131.75 61.9268 132.139 62.3386C132.529 62.7511 133.449 62.663 135.626 62.8712L149.391 62.6663L149.312 62.3364C148.88 60.3394 149.196 58.0948 149.508 55.8779C149.733 54.2823 149.956 52.7011 149.896 51.237L131.53 50.9159Z" fill="#465830"/>
<path d="M87.0881 0.527168C88.2653 0.313552 88.4478 0.0361094 90.439 0.402229C92.0762 0.703313 92.6991 0.457265 94.0268 0.948585C95.162 1.36956 96.5962 2.16997 97.208 2.9109C101.751 8.41567 101.483 32.8204 101.281 40.4941C100.942 53.2864 100.027 67.5468 100.779 80.42C100.981 83.8747 101.315 87.0651 101.219 90.641C101.018 98.1195 92.2493 97.0174 87.7576 97.4454C85.5352 97.6575 79.4784 99.7369 79.1077 96.8157C78.8895 95.0948 79.2775 95.6914 78.3718 94.6284C76.9943 93.0116 77.4983 94.0224 76.4629 91.7679C75.3991 89.4544 76.4481 90.2392 76.1142 83.961C75.7801 77.6803 76.8252 72.1104 76.6058 66.1164C76.4256 61.182 75.8502 52.4381 76.3317 47.841C76.9836 41.6208 76.9766 36.8365 76.1049 30.5422C74.8669 31.1396 73.3071 35.4246 72.5849 36.8641C69.9818 42.0526 64.8926 50.238 61.8112 55.3999C61.6941 55.5963 61.5818 55.7879 61.474 55.975C60.4196 57.8059 59.8017 59.2008 59.3311 60.2634C58.6391 61.8258 58.2654 62.6694 57.2904 63.1231C57.1995 63.1654 57.1034 63.2042 57.0013 63.24C56.4572 63.4308 55.7434 63.5329 54.7471 63.5866C54.6343 63.5926 54.521 63.594 54.4096 63.5947L53.7377 63.5493C51.0058 63.4076 52.2938 63.4736 51.2551 63.9552C50.0052 64.534 44.8955 64.5851 42.9541 64.5761C37.9945 64.5533 40.5801 65.6063 37.5141 64.2915C37.4282 64.2549 37.315 64.2113 37.2239 64.1752C37.1269 64.1367 37.0102 64.1059 36.9087 64.0683C36.5768 63.9454 36.3037 63.8752 35.8632 63.7097L35.8603 63.7086C35.8308 63.697 35.8035 63.6792 35.7734 63.6595C35.7339 63.6336 35.6896 63.6045 35.6289 63.5825C35.5937 63.5696 35.553 63.5592 35.5046 63.553C35.3037 63.5271 35.2534 63.4591 35.1447 63.3834C36.2383 60.4957 36.5118 62.0637 34.952 58.647C31.4401 50.9523 27.98 44.6854 25.01 36.6012C24.0695 34.0419 22.6635 29.883 21.5081 27.5586C20.6578 29.1152 21.3964 41.8231 21.4236 44.7748C21.5164 54.997 27.1633 85.654 23.6146 93.2597C22.2846 96.1103 20.5186 94.4053 17.6687 95.304C15.773 95.9016 15.1414 95.65 13.5489 95.9685C5.77406 97.5223 8.36689 97.6727 4.29375 94.3412C4.15373 94.2267 4.02146 94.1194 3.89653 94.018C3.63868 93.8088 3.41211 93.625 3.2133 93.4555C1.82162 92.269 1.79014 91.7852 1.90941 88.2157C2.12784 81.6693 2.29764 77.8766 1.86031 71.2226C1.50524 65.8237 0.886239 60.5121 0.42821 55.086C-0.336088 46.0336 0.0735904 37.5502 0.494306 28.8419C0.504714 28.6264 0.51513 28.4108 0.525535 28.195C0.631984 25.9877 0.737658 23.7647 0.822909 21.5132C1.35365 7.49705 -1.03557 3.99173 8.11765 2.85872C8.41122 2.82238 8.71666 2.78848 9.03445 2.75675C11.3372 2.52681 12.5355 2.4371 13.1884 2.42121C13.8413 2.40531 13.9489 2.46323 14.0702 2.52855C14.2033 2.60018 14.3529 2.6807 15.2564 2.6825C15.4253 2.68284 15.6205 2.68042 15.8468 2.67469C17.9529 2.62126 17.7452 2.22309 19.9076 2.40928C23.0108 2.67677 23.4179 0.868576 30.4966 2.55225C36.3232 3.93883 40.3763 19.3957 43.1449 25.1252C44.2789 27.4714 47.4467 35.5629 48.7484 36.8138C50.5206 34.9906 54.037 26.0542 56.3938 21.3228C56.5444 21.0204 56.6902 20.7353 56.8306 20.4702L62.8462 8.27006C63.5912 6.35451 62.985 4.68086 63.8264 3.29813C64.1783 2.97458 65.7026 3.18121 67.7851 2.55286C68.7567 2.2601 69.15 2.24394 69.6446 2.27539C69.7152 2.27988 69.7879 2.28535 69.8647 2.29112C69.9088 2.29443 69.9542 2.2979 70.0014 2.30129C70.3169 2.32397 70.709 2.34541 71.2903 2.32781C71.4445 2.32315 71.612 2.31573 71.7949 2.30485C75.0248 2.11216 77.905 1.90582 80.9662 1.18107C82.7269 0.763934 84.3561 0.870614 85.9277 0.702461C86.5893 0.631755 86.5238 0.629637 87.0881 0.527168Z" fill="#465830"/>
<path d="M301.823 0.142372C304.5 0.219677 307.157 0.18256 309.816 0.126806C309.928 0.124456 310.04 0.121919 310.152 0.119512C310.548 0.111147 310.944 0.102457 311.34 0.0934768C311.859 0.0818887 312.379 0.0702958 312.899 0.0594134C316.539 -0.0167161 320.198 -0.0581229 323.93 0.180915C330.861 0.625058 338.702 1.3672 345.701 1.26301C350.839 1.30269 356.068 3.06714 360.614 2.3755C360.078 5.27779 360.538 2.61847 359.578 4.62476C361.028 4.87289 360.428 4.64137 361.41 4.47745L361.861 4.3541C361.893 4.35586 362.003 4.35243 362.03 4.36201C362.389 4.49213 362.687 5.61073 362.741 6.13425C362.937 8.01028 362.377 6.72864 362.75 8.7746C363.662 13.7753 364.325 14.3631 363.44 18.6617C363.361 19.0443 363.293 19.3621 363.228 19.6271C363.149 19.9511 363.074 20.1962 362.991 20.3847C362.987 20.3944 362.982 20.404 362.978 20.4134C362.959 20.4557 362.938 20.495 362.918 20.5316C362.405 21.4406 361.48 20.6837 357.571 22.4727C355.435 23.4504 354.123 22.2951 351.897 23.0129C349.585 21.639 328.961 21.7658 321.432 21.812C321.359 21.8125 321.288 21.8129 321.217 21.8133C320.16 21.8198 319.385 21.8243 318.991 21.8218C316.075 21.8038 313.622 21.4396 310.937 21.3298C305.977 21.1277 292.193 21.8952 286.281 21.8763L285.479 22.0265C285.36 26.6136 285.976 32.3272 286.2 37.0347C286.423 41.7047 288.089 46.9989 287.488 51.543C289.415 54.9188 289.391 90.3271 286.968 94.6271C286.554 95.3635 286.89 94.9319 286.338 95.4356C286.292 95.5112 286.126 95.6282 286.194 95.6581L284.418 97.9822C283.763 99.2507 284.089 98.9453 283.527 100.35L282.841 100.338C282.484 99.6879 282.322 99.3972 281.654 98.942C280.273 98.0015 279.526 98.1213 278.02 98.3849C276.615 98.631 273.236 94.4195 272.477 98.7831L271.203 97.7719C271.193 97.7963 270.831 98.6441 268.945 98.1382L267.941 97.9001C267.88 97.8863 267.755 97.862 267.694 97.8479L266.94 97.6502C265.534 97.2081 266.533 98.2796 265.577 96.949C265.056 94.8607 266.098 96.1742 265.564 94.1239C265.254 92.9372 264.711 93.1008 264.539 91.332C264.527 91.2166 264.518 91.0929 264.51 90.9601C264.389 88.9118 264.745 85.5966 264.904 83.5076C265.898 70.8219 265.687 69.5366 265.422 56.7483C265.012 51.3289 264.484 45.5024 264.329 40.1683C264.212 36.1329 265.119 25.9497 264.318 22.6173L264.278 22.4637C257.462 21.8072 248.246 22.9107 241.249 23.2776C232.959 23.7119 174.973 24.545 168.866 24.0516C151.128 25.0065 143.145 22.4098 123.547 23.6446C118.837 23.9414 113.838 24.9248 109.096 24.6444C108.467 23.5956 108.043 21.5513 107.981 20.0795L107.552 15.6924C107.547 15.6456 107.545 15.5298 107.544 15.4853C107.513 14.657 107.781 16.0322 107.628 14.6033C107.337 11.8911 106.756 14.2066 107.477 11.6746C107.902 10.1818 107.696 8.00614 108.266 6.80942C110.054 3.06347 122.182 2.38165 126.296 1.92216C132.599 1.21908 141.966 1.19487 148.462 1.47437C150.015 1.54122 151.502 1.70812 153.015 1.87792L153.02 1.8785C153.147 1.89269 153.273 1.9069 153.4 1.92107C153.513 1.93368 153.626 1.94637 153.739 1.95889C155.423 2.14495 157.156 2.3157 159.058 2.33985C160.077 2.3529 161.166 2.29755 162.277 2.22878C162.534 2.21298 162.792 2.19639 163.05 2.17966C163.206 2.16967 163.361 2.15964 163.517 2.14975C163.658 2.14084 163.798 2.13214 163.939 2.12355C164.488 2.09002 165.037 2.05953 165.58 2.03888C167.215 1.97673 168.805 2.0016 170.205 2.28678C171.158 1.65706 209.295 1.69159 214.292 1.67973C228.999 1.64602 242.748 0.546999 257.198 0.0115123L301.823 0.142372Z" fill="#465830"/>
<path d="M1.77002 129.862V109.499H15.253V113.048H6.07542V117.901H14.3581V121.45H6.07542V129.862H1.77002Z" fill="#2E2E60"/>
<path d="M23.9085 130.161C22.3375 130.161 20.9852 129.842 19.8517 129.206C18.7248 128.563 17.8564 127.655 17.2466 126.482C16.6367 125.302 16.3318 123.906 16.3318 122.295C16.3318 120.724 16.6367 119.346 17.2466 118.159C17.8564 116.973 18.7149 116.048 19.8219 115.385C20.9355 114.722 22.2414 114.391 23.7395 114.391C24.7471 114.391 25.685 114.553 26.5534 114.878C27.4284 115.196 28.1907 115.677 28.8403 116.32C29.4966 116.963 30.007 117.771 30.3716 118.746C30.7362 119.714 30.9185 120.847 30.9185 122.146V123.31H18.0222V120.685H26.9313C26.9313 120.075 26.7987 119.535 26.5335 119.064C26.2684 118.593 25.9005 118.225 25.4298 117.96C24.9658 117.688 24.4256 117.553 23.8091 117.553C23.1661 117.553 22.596 117.702 22.0989 118C21.6083 118.292 21.2239 118.686 20.9454 119.183C20.667 119.674 20.5245 120.221 20.5179 120.824V123.32C20.5179 124.075 20.6571 124.728 20.9355 125.278C21.2205 125.829 21.6216 126.253 22.1386 126.551C22.6557 126.849 23.2688 126.999 23.9781 126.999C24.4488 126.999 24.8796 126.932 25.2707 126.8C25.6618 126.667 25.9966 126.468 26.275 126.203C26.5534 125.938 26.7655 125.613 26.9114 125.229L30.829 125.487C30.6301 126.429 30.2224 127.251 29.606 127.953C28.9961 128.649 28.2073 129.193 27.2395 129.584C26.2783 129.968 25.168 130.161 23.9085 130.161Z" fill="#2E2E60"/>
<path d="M33.6827 129.862V114.59H37.9185V129.862H33.6827ZM35.8105 112.621C35.1808 112.621 34.6405 112.412 34.1898 111.994C33.7457 111.57 33.5236 111.063 33.5236 110.473C33.5236 109.89 33.7457 109.389 34.1898 108.972C34.6405 108.547 35.1808 108.335 35.8105 108.335C36.4402 108.335 36.9772 108.547 37.4213 108.972C37.8721 109.389 38.0975 109.89 38.0975 110.473C38.0975 111.063 37.8721 111.57 37.4213 111.994C36.9772 112.412 36.4402 112.621 35.8105 112.621Z" fill="#2E2E60"/>
<path d="M49.4352 114.59V117.771H40.2377V114.59H49.4352ZM42.3258 110.93H46.5616V125.169C46.5616 125.56 46.6212 125.865 46.7406 126.084C46.8599 126.296 47.0256 126.445 47.2377 126.531C47.4565 126.617 47.7084 126.661 47.9934 126.661C48.1923 126.661 48.3911 126.644 48.59 126.611C48.7889 126.571 48.9413 126.541 49.0474 126.521L49.7136 129.673C49.5014 129.74 49.2032 129.816 48.8187 129.902C48.4342 129.995 47.9669 130.051 47.4167 130.071C46.3959 130.111 45.501 129.975 44.732 129.663C43.9697 129.352 43.3764 128.868 42.9522 128.212C42.528 127.555 42.3192 126.727 42.3258 125.726V110.93Z" fill="#2E2E60"/>
<path d="M58.9309 130.161C57.3864 130.161 56.0507 129.832 54.9238 129.176C53.8035 128.513 52.9385 127.592 52.3286 126.412C51.7188 125.225 51.4139 123.85 51.4139 122.286C51.4139 120.708 51.7188 119.329 52.3286 118.149C52.9385 116.963 53.8035 116.041 54.9238 115.385C56.0507 114.722 57.3864 114.391 58.9309 114.391C60.4754 114.391 61.8078 114.722 62.928 115.385C64.0549 116.041 64.9233 116.963 65.5331 118.149C66.143 119.329 66.4479 120.708 66.4479 122.286C66.4479 123.85 66.143 125.225 65.5331 126.412C64.9233 127.592 64.0549 128.513 62.928 129.176C61.8078 129.832 60.4754 130.161 58.9309 130.161ZM58.9508 126.879C59.6534 126.879 60.2401 126.68 60.7107 126.283C61.1814 125.878 61.536 125.328 61.7746 124.632C62.0199 123.936 62.1425 123.144 62.1425 122.256C62.1425 121.367 62.0199 120.575 61.7746 119.879C61.536 119.183 61.1814 118.633 60.7107 118.229C60.2401 117.824 59.6534 117.622 58.9508 117.622C58.2415 117.622 57.6449 117.824 57.161 118.229C56.6837 118.633 56.3224 119.183 56.0772 119.879C55.8385 120.575 55.7192 121.367 55.7192 122.256C55.7192 123.144 55.8385 123.936 56.0772 124.632C56.3224 125.328 56.6837 125.878 57.161 126.283C57.6449 126.68 58.2415 126.879 58.9508 126.879Z" fill="#2E2E60"/>
<path d="M75.6827 135.59V114.59H79.8589V117.155H80.0478C80.2334 116.744 80.5019 116.326 80.8532 115.902C81.2112 115.471 81.6752 115.113 82.2453 114.828C82.822 114.536 83.5379 114.391 84.393 114.391C85.5067 114.391 86.5341 114.682 87.4754 115.266C88.4167 115.842 89.1692 116.714 89.7326 117.881C90.296 119.041 90.5778 120.496 90.5778 122.246C90.5778 123.949 90.3027 125.388 89.7525 126.561C89.2089 127.728 88.4664 128.613 87.5251 129.216C86.5905 129.813 85.5431 130.111 84.3831 130.111C83.5611 130.111 82.8618 129.975 82.2851 129.703C81.715 129.431 81.2476 129.09 80.883 128.679C80.5184 128.261 80.24 127.84 80.0478 127.416H79.9186V135.59H75.6827ZM79.829 122.226C79.829 123.134 79.955 123.926 80.2069 124.602C80.4588 125.278 80.8234 125.805 81.3007 126.183C81.778 126.554 82.358 126.74 83.0407 126.74C83.7301 126.74 84.3135 126.551 84.7907 126.173C85.268 125.789 85.6293 125.259 85.8746 124.582C86.1265 123.9 86.2524 123.114 86.2524 122.226C86.2524 121.344 86.1298 120.569 85.8845 119.899C85.6393 119.23 85.278 118.706 84.8007 118.328C84.3234 117.95 83.7368 117.761 83.0407 117.761C82.3513 117.761 81.768 117.944 81.2907 118.308C80.8201 118.673 80.4588 119.19 80.2069 119.859C79.955 120.529 79.829 121.318 79.829 122.226Z" fill="#2E2E60"/>
<path d="M97.7568 130.151C96.7823 130.151 95.9139 129.982 95.1516 129.643C94.3893 129.299 93.7861 128.792 93.342 128.122C92.9045 127.446 92.6858 126.604 92.6858 125.597C92.6858 124.748 92.8415 124.036 93.1531 123.459C93.4646 122.882 93.8889 122.418 94.4258 122.067C94.9627 121.715 95.5726 121.45 96.2553 121.271C96.9447 121.092 97.6673 120.966 98.423 120.894C99.3112 120.801 100.027 120.715 100.571 120.635C101.114 120.549 101.509 120.423 101.754 120.257C101.999 120.091 102.122 119.846 102.122 119.521V119.462C102.122 118.832 101.923 118.345 101.525 118C101.134 117.655 100.577 117.483 99.8548 117.483C99.0924 117.483 98.4859 117.652 98.0352 117.99C97.5844 118.322 97.2861 118.739 97.1403 119.243L93.2227 118.925C93.4215 117.997 93.8126 117.195 94.396 116.519C94.9793 115.836 95.7317 115.312 96.6531 114.947C97.5811 114.576 98.655 114.391 99.8747 114.391C100.723 114.391 101.535 114.49 102.311 114.689C103.093 114.888 103.786 115.196 104.389 115.614C104.999 116.031 105.479 116.568 105.831 117.224C106.182 117.874 106.358 118.653 106.358 119.561V129.862H102.341V127.744H102.221C101.976 128.222 101.648 128.643 101.237 129.007C100.826 129.365 100.332 129.647 99.7553 129.852C99.1786 130.051 98.5125 130.151 97.7568 130.151ZM98.9698 127.227C99.5929 127.227 100.143 127.105 100.62 126.859C101.098 126.608 101.472 126.269 101.744 125.845C102.016 125.421 102.152 124.94 102.152 124.403V122.783C102.019 122.869 101.837 122.948 101.605 123.021C101.379 123.088 101.124 123.151 100.839 123.21C100.554 123.263 100.269 123.313 99.984 123.359C99.881 123.374 99.7814 123.388 99.6853 123.401C99.5155 123.425 99.3566 123.448 99.2085 123.469C98.7113 123.542 98.2771 123.658 97.9059 123.817C97.5347 123.976 97.2463 124.191 97.0409 124.463C96.8354 124.728 96.7326 125.06 96.7326 125.457C96.7326 126.034 96.9414 126.475 97.359 126.78C97.7833 127.078 98.3202 127.227 98.9698 127.227Z" fill="#2E2E60"/>
<path d="M109.644 129.862V114.59H113.75V117.254H113.909C114.188 116.306 114.655 115.59 115.311 115.107C115.968 114.616 116.723 114.371 117.579 114.371C117.791 114.371 118.019 114.384 118.265 114.411C118.51 114.437 118.725 114.474 118.911 114.52V118.278C118.712 118.219 118.437 118.166 118.086 118.119C117.734 118.073 117.413 118.05 117.121 118.05C116.498 118.05 115.941 118.186 115.451 118.457C114.967 118.723 114.582 119.094 114.297 119.571C114.019 120.048 113.88 120.599 113.88 121.222V129.862H109.644Z" fill="#2E2E60"/>
<path d="M125.019 130.151C124.044 130.151 123.176 129.982 122.413 129.643C121.651 129.299 121.048 128.792 120.604 128.122C120.166 127.446 119.947 126.604 119.947 125.597C119.947 124.748 120.103 124.036 120.415 123.459C120.726 122.882 121.151 122.418 121.688 122.067C122.224 121.715 122.834 121.45 123.517 121.271C124.206 121.092 124.929 120.966 125.685 120.894C126.573 120.801 127.289 120.715 127.832 120.635C128.376 120.549 128.77 120.423 129.016 120.257C129.261 120.091 129.384 119.846 129.384 119.521V119.462C129.384 118.832 129.185 118.345 128.787 118C128.396 117.655 127.839 117.483 127.117 117.483C126.354 117.483 125.748 117.652 125.297 117.99C124.846 118.322 124.548 118.739 124.402 119.243L120.484 118.925C120.683 117.997 121.074 117.195 121.658 116.519C122.241 115.836 122.993 115.312 123.915 114.947C124.843 114.576 125.917 114.391 127.136 114.391C127.985 114.391 128.797 114.49 129.572 114.689C130.355 114.888 131.047 115.196 131.651 115.614C132.26 116.031 132.741 116.568 133.092 117.224C133.444 117.874 133.619 118.653 133.619 119.561V129.862H129.602V127.744H129.483C129.238 128.222 128.91 128.643 128.499 129.007C128.088 129.365 127.594 129.647 127.017 129.852C126.44 130.051 125.774 130.151 125.019 130.151ZM126.232 127.227C126.855 127.227 127.405 127.105 127.882 126.859C128.359 126.608 128.734 126.269 129.006 125.845C129.277 125.421 129.413 124.94 129.413 124.403V122.783C129.281 122.869 129.099 122.948 128.867 123.021C128.641 123.088 128.386 123.151 128.101 123.21C127.816 123.263 127.531 123.313 127.246 123.359C126.961 123.399 126.702 123.436 126.47 123.469C125.973 123.542 125.539 123.658 125.168 123.817C124.796 123.976 124.508 124.191 124.303 124.463C124.097 124.728 123.994 125.06 123.994 125.457C123.994 126.034 124.203 126.475 124.621 126.78C125.045 127.078 125.582 127.227 126.232 127.227Z" fill="#2E2E60"/>
<path d="M153.478 135.59V127.416H153.349C153.15 127.84 152.869 128.261 152.504 128.679C152.146 129.09 151.679 129.431 151.102 129.703C150.532 129.975 149.836 130.111 149.014 130.111C147.854 130.111 146.803 129.813 145.862 129.216C144.927 128.613 144.185 127.728 143.635 126.561C143.091 125.388 142.819 123.949 142.819 122.246C142.819 120.496 143.101 119.041 143.664 117.881C144.228 116.714 144.977 115.842 145.912 115.266C146.853 114.682 147.884 114.391 149.004 114.391C149.859 114.391 150.572 114.536 151.142 114.828C151.718 115.113 152.182 115.471 152.534 115.902C152.892 116.326 153.163 116.744 153.349 117.155H153.528V114.59H157.704V135.59H153.478ZM150.356 126.74C151.039 126.74 151.616 126.554 152.086 126.183C152.564 125.805 152.928 125.278 153.18 124.602C153.439 123.926 153.568 123.134 153.568 122.226C153.568 121.318 153.442 120.529 153.19 119.859C152.938 119.19 152.574 118.673 152.096 118.308C151.619 117.944 151.039 117.761 150.356 117.761C149.66 117.761 149.074 117.95 148.596 118.328C148.119 118.706 147.758 119.23 147.512 119.899C147.267 120.569 147.145 121.344 147.145 122.226C147.145 123.114 147.267 123.9 147.512 124.582C147.764 125.259 148.126 125.789 148.596 126.173C149.074 126.551 149.66 126.74 150.356 126.74Z" fill="#2E2E60"/>
<path d="M170.899 123.359V114.59H175.135V129.862H171.068V127.088H170.909C170.564 127.983 169.991 128.702 169.189 129.246C168.393 129.789 167.422 130.061 166.275 130.061C165.254 130.061 164.356 129.829 163.581 129.365C162.805 128.901 162.199 128.242 161.761 127.386C161.33 126.531 161.111 125.507 161.105 124.314V114.59H165.341V123.558C165.347 124.46 165.589 125.172 166.066 125.696C166.544 126.22 167.183 126.482 167.985 126.482C168.496 126.482 168.973 126.366 169.417 126.134C169.861 125.895 170.219 125.544 170.491 125.08C170.77 124.616 170.905 124.042 170.899 123.359Z" fill="#2E2E60"/>
<path d="M185.483 130.161C183.912 130.161 182.56 129.842 181.426 129.206C180.299 128.563 179.431 127.655 178.821 126.482C178.211 125.302 177.906 123.906 177.906 122.295C177.906 120.724 178.211 119.346 178.821 118.159C179.431 116.973 180.289 116.048 181.396 115.385C182.51 114.722 183.816 114.391 185.314 114.391C186.322 114.391 187.259 114.553 188.128 114.878C189.003 115.196 189.765 115.677 190.415 116.32C191.071 116.963 191.581 117.771 191.946 118.746C192.311 119.714 192.493 120.847 192.493 122.146V123.31H179.597V120.685H188.506C188.506 120.075 188.373 119.535 188.108 119.064C187.843 118.593 187.475 118.225 187.004 117.96C186.54 117.688 186 117.553 185.384 117.553C184.741 117.553 184.17 117.702 183.673 118C183.183 118.292 182.798 118.686 182.52 119.183C182.241 119.674 182.099 120.221 182.092 120.824V123.32C182.092 124.075 182.232 124.728 182.51 125.278C182.795 125.829 183.196 126.253 183.713 126.551C184.23 126.849 184.843 126.999 185.553 126.999C186.023 126.999 186.454 126.932 186.845 126.8C187.236 126.667 187.571 126.468 187.849 126.203C188.128 125.938 188.34 125.613 188.486 125.229L192.403 125.487C192.205 126.429 191.797 127.251 191.18 127.953C190.571 128.649 189.782 129.193 188.814 129.584C187.853 129.968 186.742 130.161 185.483 130.161Z" fill="#2E2E60"/>
<path d="M195.257 129.862V114.59H199.294V117.284H199.473C199.791 116.389 200.322 115.683 201.064 115.166C201.806 114.649 202.695 114.391 203.729 114.391C204.776 114.391 205.668 114.652 206.403 115.176C207.139 115.693 207.63 116.396 207.875 117.284H208.034C208.346 116.409 208.909 115.71 209.724 115.186C210.546 114.656 211.518 114.391 212.638 114.391C214.063 114.391 215.22 114.845 216.108 115.753C217.003 116.654 217.45 117.934 217.45 119.591V129.862H213.224V120.426C213.224 119.578 212.999 118.941 212.548 118.517C212.098 118.093 211.534 117.881 210.858 117.881C210.089 117.881 209.489 118.126 209.058 118.617C208.627 119.1 208.412 119.74 208.412 120.536V129.862H204.305V120.337C204.305 119.588 204.09 118.991 203.659 118.547C203.235 118.103 202.675 117.881 201.979 117.881C201.508 117.881 201.084 118 200.706 118.239C200.335 118.471 200.04 118.799 199.821 119.223C199.602 119.641 199.493 120.131 199.493 120.695V129.862H195.257Z" fill="#2E2E60"/>
<path d="M241.515 114.59L236.176 129.862H231.403L226.064 114.59H230.538L233.71 125.517H233.869L237.031 114.59H241.515Z" fill="#2E2E60"/>
<path d="M243.683 129.862V114.59H247.919V129.862H243.683ZM245.811 112.621C245.181 112.621 244.641 112.412 244.19 111.994C243.746 111.57 243.524 111.063 243.524 110.473C243.524 109.89 243.746 109.389 244.19 108.972C244.641 108.547 245.181 108.335 245.811 108.335C246.441 108.335 246.977 108.547 247.422 108.972C247.872 109.389 248.098 109.89 248.098 110.473C248.098 111.063 247.872 111.57 247.422 111.994C246.977 112.412 246.441 112.621 245.811 112.621Z" fill="#2E2E60"/>
<path d="M265.55 114.59L260.211 129.862H255.438L250.099 114.59H254.573L257.745 125.517H257.904L261.066 114.59H265.55Z" fill="#2E2E60"/>
<path d="M274.186 130.161C272.615 130.161 271.263 129.842 270.129 129.206C269.002 128.563 268.134 127.655 267.524 126.482C266.914 125.302 266.609 123.906 266.609 122.295C266.609 120.724 266.914 119.346 267.524 118.159C268.134 116.973 268.992 116.048 270.099 115.385C271.213 114.722 272.519 114.391 274.017 114.391C275.025 114.391 275.963 114.553 276.831 114.878C277.706 115.196 278.468 115.677 279.118 116.32C279.774 116.963 280.285 117.771 280.649 118.746C281.014 119.714 281.196 120.847 281.196 122.146V123.31H268.3V120.685H277.209C277.209 120.075 277.076 119.535 276.811 119.064C276.546 118.593 276.178 118.225 275.707 117.96C275.243 117.688 274.703 117.553 274.087 117.553C273.444 117.553 272.874 117.702 272.376 118C271.886 118.292 271.501 118.686 271.223 119.183C270.945 119.674 270.802 120.221 270.796 120.824V123.32C270.796 124.075 270.935 124.728 271.213 125.278C271.498 125.829 271.899 126.253 272.416 126.551C272.933 126.849 273.546 126.999 274.256 126.999C274.726 126.999 275.157 126.932 275.548 126.8C275.939 126.667 276.274 126.468 276.553 126.203C276.831 125.938 277.043 125.613 277.189 125.229L281.107 125.487C280.908 126.429 280.5 127.251 279.884 127.953C279.274 128.649 278.485 129.193 277.517 129.584C276.556 129.968 275.446 130.161 274.186 130.161Z" fill="#2E2E60"/>
<path d="M297.341 130.161C295.797 130.161 294.461 129.832 293.334 129.176C292.214 128.513 291.349 127.592 290.739 126.412C290.129 125.225 289.824 123.85 289.824 122.286C289.824 120.708 290.129 119.329 290.739 118.149C291.349 116.963 292.214 116.041 293.334 115.385C294.461 114.722 295.797 114.391 297.341 114.391C298.886 114.391 300.218 114.722 301.338 115.385C302.465 116.041 303.334 116.963 303.944 118.149C304.553 119.329 304.858 120.708 304.858 122.286C304.858 123.85 304.553 125.225 303.944 126.412C303.334 127.592 302.465 128.513 301.338 129.176C300.218 129.832 298.886 130.161 297.341 130.161ZM297.361 126.879C297.707 126.879 298.025 126.831 298.314 126.735C298.319 126.733 298.323 126.732 298.328 126.73C298.551 126.655 298.757 126.55 298.947 126.417C299.006 126.375 299.065 126.33 299.121 126.283C299.592 125.878 299.946 125.328 300.185 124.632C300.43 123.936 300.553 123.144 300.553 122.256C300.553 121.367 300.43 120.575 300.185 119.879C299.946 119.183 299.592 118.633 299.121 118.229C298.65 117.824 298.064 117.622 297.361 117.622C296.652 117.622 296.055 117.824 295.571 118.229C295.094 118.633 294.733 119.183 294.488 119.879C294.249 120.575 294.13 121.367 294.13 122.256C294.13 123.144 294.249 123.936 294.488 124.632C294.733 125.328 295.094 125.878 295.571 126.283C295.63 126.331 295.69 126.376 295.752 126.418C295.832 126.473 295.916 126.523 296.002 126.569C296.062 126.6 296.123 126.629 296.186 126.656C296.535 126.805 296.927 126.879 297.361 126.879Z" fill="#2E2E60"/>
<path d="M314.093 114.59H318.329V130.618C318.329 131.798 318.097 132.752 317.633 133.482C317.169 134.211 316.503 134.744 315.634 135.082C314.773 135.42 313.742 135.59 312.542 135.59C312.396 135.59 312.257 135.586 312.124 135.58C311.985 135.58 311.839 135.576 311.687 135.57V132.259C311.8 132.265 311.899 132.268 311.985 132.268C312.065 132.275 312.151 132.278 312.244 132.278C312.926 132.278 313.404 132.133 313.675 131.841C313.954 131.556 314.093 131.125 314.093 130.548V114.59ZM316.201 112.621C315.578 112.621 315.041 112.412 314.59 111.994C314.139 111.57 313.914 111.063 313.914 110.473C313.914 109.89 314.139 109.389 314.59 108.972C315.041 108.547 315.578 108.335 316.201 108.335C316.837 108.335 317.378 108.547 317.822 108.972C318.273 109.389 318.498 109.89 318.498 110.473C318.498 111.063 318.273 111.57 317.822 111.994C317.378 112.412 316.837 112.621 316.201 112.621Z" fill="#2E2E60"/>
<path d="M328.623 130.161C327.078 130.161 325.742 129.832 324.615 129.176C323.495 128.513 322.63 127.592 322.02 126.412C321.41 125.225 321.105 123.85 321.105 122.286C321.105 120.708 321.41 119.329 322.02 118.149C322.63 116.963 323.495 116.041 324.615 115.385C325.742 114.722 327.078 114.391 328.623 114.391C330.167 114.391 331.499 114.722 332.62 115.385C333.747 116.041 334.615 116.963 335.225 118.149C335.835 119.329 336.14 120.708 336.14 122.286C336.14 123.85 335.835 125.225 335.225 126.412C334.615 127.592 333.747 128.513 332.62 129.176C331.499 129.832 330.167 130.161 328.623 130.161ZM328.642 126.879C329.345 126.879 329.932 126.68 330.402 126.283C330.873 125.878 331.228 125.328 331.466 124.632C331.712 123.936 331.834 123.144 331.834 122.256C331.834 121.367 331.712 120.575 331.466 119.879C331.228 119.183 330.873 118.633 330.402 118.229C329.932 117.824 329.345 117.622 328.642 117.622C327.933 117.622 327.337 117.824 326.853 118.229C326.375 118.633 326.014 119.183 325.769 119.879C325.53 120.575 325.411 121.367 325.411 122.256C325.411 123.144 325.53 123.936 325.769 124.632C326.014 125.328 326.375 125.878 326.853 126.283C327.337 126.68 327.933 126.879 328.642 126.879Z" fill="#2E2E60"/>
<path d="M345.774 135.908C344.402 135.908 343.226 135.719 342.245 135.341C341.27 134.97 340.495 134.463 339.918 133.82C339.341 133.177 338.967 132.454 338.794 131.652L342.712 131.125C342.831 131.43 343.02 131.715 343.279 131.98C343.537 132.245 343.879 132.457 344.303 132.616C344.734 132.782 345.257 132.865 345.874 132.865C346.795 132.865 347.554 132.64 348.151 132.189C348.754 131.745 349.056 130.999 349.056 129.952V127.158H348.877C348.691 127.582 348.413 127.983 348.041 128.361C347.67 128.739 347.193 129.047 346.61 129.286C346.026 129.524 345.33 129.643 344.522 129.643C343.375 129.643 342.331 129.378 341.39 128.848C340.455 128.311 339.709 127.492 339.152 126.392C338.602 125.285 338.327 123.886 338.327 122.196C338.327 120.466 338.609 119.021 339.172 117.861C339.736 116.701 340.485 115.832 341.419 115.256C342.361 114.679 343.391 114.391 344.512 114.391C345.367 114.391 346.083 114.536 346.659 114.828C347.236 115.113 347.7 115.471 348.051 115.902C348.409 116.326 348.684 116.744 348.877 117.155H349.036V114.59H353.242V130.011C353.242 131.311 352.924 132.398 352.287 133.273C351.651 134.148 350.769 134.804 349.642 135.241C348.522 135.686 347.233 135.908 345.774 135.908ZM345.864 126.462C346.547 126.462 347.123 126.293 347.594 125.955C348.071 125.61 348.436 125.119 348.688 124.483C348.946 123.84 349.076 123.071 349.076 122.176C349.076 121.281 348.95 120.506 348.698 119.849C348.446 119.187 348.081 118.673 347.604 118.308C347.127 117.944 346.547 117.761 345.864 117.761C345.168 117.761 344.581 117.95 344.104 118.328C343.627 118.699 343.266 119.216 343.02 119.879C342.775 120.542 342.652 121.308 342.652 122.176C342.652 123.058 342.775 123.82 343.02 124.463C343.272 125.099 343.633 125.593 344.104 125.945C344.581 126.289 345.168 126.462 345.864 126.462Z" fill="#2E2E60"/>
<path d="M363.513 130.161C361.969 130.161 360.633 129.832 359.506 129.176C358.386 128.513 357.521 127.592 356.911 126.412C356.301 125.225 355.996 123.85 355.996 122.286C355.996 120.708 356.301 119.329 356.911 118.149C357.521 116.963 358.386 116.041 359.506 115.385C360.633 114.722 361.969 114.391 363.513 114.391C365.058 114.391 366.39 114.722 367.51 115.385C368.637 116.041 369.505 116.963 370.115 118.149C370.725 119.329 371.03 120.708 371.03 122.286C371.03 123.85 370.725 125.225 370.115 126.412C369.505 127.592 368.637 128.513 367.51 129.176C366.39 129.832 365.058 130.161 363.513 130.161ZM363.533 126.879C364.06 126.879 364.522 126.767 364.918 126.544C365.05 126.469 365.175 126.382 365.293 126.283C365.764 125.878 366.118 125.328 366.357 124.632C366.602 123.936 366.725 123.144 366.725 122.256C366.725 121.367 366.602 120.575 366.357 119.879C366.118 119.183 365.764 118.633 365.293 118.229C364.911 117.9 364.452 117.705 363.916 117.644C363.793 117.629 363.665 117.622 363.533 117.622C362.824 117.622 362.227 117.824 361.743 118.229C361.266 118.633 360.905 119.183 360.659 119.879C360.421 120.575 360.301 121.367 360.301 122.256C360.301 123.144 360.421 123.936 360.659 124.632C360.905 125.328 361.266 125.878 361.743 126.283C362.227 126.68 362.824 126.879 363.533 126.879Z" fill="#2E2E60"/>
<path fill-rule="evenodd" clip-rule="evenodd" d="M365.179 38.6611C364.819 36.5614 364.343 34.6787 363.705 33.1505L364.069 34.1351L364.537 35.7321L364.978 37.6044L365.179 38.6611ZM362.72 31.2829C362.696 31.2468 362.671 31.211 362.646 31.1757L362.644 31.1767L362.72 31.2829Z" fill="#DEDEDE"/>
<path fill-rule="evenodd" clip-rule="evenodd" d="M298.94 126.423L298.947 126.417C298.757 126.55 298.551 126.655 298.328 126.73C298.323 126.732 298.319 126.733 298.314 126.735C298.54 126.66 298.748 126.556 298.94 126.423ZM296.186 126.656C296.123 126.629 296.062 126.6 296.002 126.569C295.916 126.523 295.832 126.473 295.752 126.418L295.758 126.423C295.893 126.514 296.035 126.592 296.186 126.656Z" fill="#DEDEDE"/>
</svg>
