<svg width="566" height="195" viewBox="0 0 566 195" fill="none" xmlns="http://www.w3.org/2000/svg">
<path d="M170.003 189H165.177L164.645 186.226L164.303 185.124L160.427 185.086L157.007 185.162L156.741 185.96L156.171 189H151.497L158.223 169.81H163.885L170.003 189ZM163.277 181.514L161.111 174.18H160.807L158.261 181.514L160.731 181.552L163.277 181.514ZM185.176 181.438C186.873 183.895 188.457 186.049 189.926 187.898L189.888 188.43C188.317 188.911 186.772 189.203 185.252 189.304L184.568 188.848C183.149 186.391 182.047 184.377 181.262 182.806H178.336V182.844L178.526 189H173.738L173.928 183.3L173.738 169.81L182.022 169.772C184.175 169.772 185.835 170.279 187 171.292C188.191 172.28 188.786 173.699 188.786 175.548C188.786 176.739 188.469 177.853 187.836 178.892C187.203 179.905 186.316 180.754 185.176 181.438ZM178.412 179.158L181.262 179.31C182.123 179.031 182.757 178.626 183.162 178.094C183.567 177.562 183.77 176.878 183.77 176.042C183.77 175.13 183.504 174.459 182.972 174.028C182.44 173.572 181.604 173.319 180.464 173.268L178.526 173.344L178.412 179.158ZM214.081 191.964C213.675 192.648 213.308 193.205 212.979 193.636C212.675 194.092 212.32 194.51 211.915 194.89L211.535 194.966C207.988 193.573 204.745 191.685 201.807 189.304C201.579 189.329 201.237 189.342 200.781 189.342C197.918 189.342 195.701 188.506 194.131 186.834C192.56 185.137 191.775 182.755 191.775 179.69C191.775 176.447 192.623 173.939 194.321 172.166C196.018 170.393 198.425 169.506 201.541 169.506C204.429 169.506 206.658 170.329 208.229 171.976C209.799 173.623 210.585 175.953 210.585 178.968C210.585 181.248 210.167 183.186 209.331 184.782C208.52 186.353 207.329 187.518 205.759 188.278C208.267 189.697 210.977 190.773 213.891 191.508L214.081 191.964ZM196.753 179.044C196.753 180.716 196.892 182.033 197.171 182.996C197.475 183.933 197.943 184.605 198.577 185.01C199.235 185.415 200.109 185.618 201.199 185.618C202.795 185.618 203.922 185.2 204.581 184.364C205.265 183.528 205.607 182.059 205.607 179.956C205.607 178.284 205.455 176.979 205.151 176.042C204.847 175.079 204.378 174.395 203.745 173.99C203.111 173.585 202.237 173.382 201.123 173.382C199.552 173.382 198.425 173.813 197.741 174.674C197.082 175.51 196.753 176.967 196.753 179.044ZM230.816 179.576L230.778 182.502C230.803 184.681 230.081 186.365 228.612 187.556C227.168 188.721 225.091 189.304 222.38 189.304C219.745 189.304 217.731 188.721 216.338 187.556C214.945 186.365 214.286 184.681 214.362 182.502L214.4 179.5L214.286 169.81H219.074L218.846 181.818C218.821 183.059 219.112 183.971 219.72 184.554C220.353 185.137 221.303 185.428 222.57 185.428C223.862 185.428 224.812 185.137 225.42 184.554C226.053 183.946 226.357 183.034 226.332 181.818L226.142 169.81H230.968L230.816 179.576ZM240.568 182.844L240.758 189H235.97L236.16 183.3L235.97 169.81H240.834L240.568 182.844ZM259.624 170.19L259.358 173.838L255.482 173.572H254.38L254.266 182.844L254.418 189H249.668L249.858 183.3L249.782 173.572H248.68L244.728 173.838L244.424 173.458L244.69 169.81H259.358L259.624 170.19ZM276.32 185.124L276.624 185.428L276.282 189H263.134L263.324 183.3L263.134 169.81H276.472L276.738 170.19L276.434 173.724L271.494 173.534H267.922L267.846 177.41L271.266 177.448L274.572 177.334L274.838 177.676L274.534 181.286L270.924 181.172H267.77L267.732 182.844L267.808 185.276H271.152L276.32 185.124ZM293.764 170.19L293.498 173.838L289.622 173.572H288.52L288.406 182.844L288.558 189H283.808L283.998 183.3L283.922 173.572H282.82L278.868 173.838L278.564 173.458L278.83 169.81H293.498L293.764 170.19ZM313.421 179.576L313.383 182.502C313.409 184.681 312.687 186.365 311.217 187.556C309.773 188.721 307.696 189.304 304.985 189.304C302.351 189.304 300.337 188.721 298.943 187.556C297.55 186.365 296.891 184.681 296.967 182.502L297.005 179.5L296.891 169.81H301.679L301.451 181.818C301.426 183.059 301.717 183.971 302.325 184.554C302.959 185.137 303.909 185.428 305.175 185.428C306.467 185.428 307.417 185.137 308.025 184.554C308.659 183.946 308.963 183.034 308.937 181.818L308.747 169.81H313.573L313.421 179.576ZM330.014 181.438C331.711 183.895 333.294 186.049 334.764 187.898L334.726 188.43C333.155 188.911 331.61 189.203 330.09 189.304L329.406 188.848C327.987 186.391 326.885 184.377 326.1 182.806H323.174V182.844L323.364 189H318.576L318.766 183.3L318.576 169.81L326.86 169.772C329.013 169.772 330.672 170.279 331.838 171.292C333.028 172.28 333.624 173.699 333.624 175.548C333.624 176.739 333.307 177.853 332.674 178.892C332.04 179.905 331.154 180.754 330.014 181.438ZM323.25 179.158L326.1 179.31C326.961 179.031 327.594 178.626 328 178.094C328.405 177.562 328.608 176.878 328.608 176.042C328.608 175.13 328.342 174.459 327.81 174.028C327.278 173.572 326.442 173.319 325.302 173.268L323.364 173.344L323.25 179.158ZM354.881 189H350.055L349.523 186.226L349.181 185.124L345.305 185.086L341.885 185.162L341.619 185.96L341.049 189H336.375L343.101 169.81H348.763L354.881 189ZM348.155 181.514L345.989 174.18H345.685L343.139 181.514L345.609 181.552L348.155 181.514ZM377.555 185.124L377.859 185.428L377.517 189H364.369L364.559 183.3L364.369 169.81H377.707L377.973 170.19L377.669 173.724L372.729 173.534H369.157L369.081 177.41L372.501 177.448L375.807 177.334L376.073 177.676L375.769 181.286L372.159 181.172H369.005L368.967 182.844L369.043 185.276H372.387L377.555 185.124ZM392.049 182.844L392.239 189H387.451L387.641 183.3L387.451 169.81H392.315L392.049 182.844ZM415.24 182.92L415.43 189H410.224L402.548 177.106H402.282L402.244 182.274L402.396 189H398.064L398.254 183.376L398.064 169.81H403.232L410.908 181.704H411.25L411.098 170L415.506 169.696L415.24 182.92ZM434.038 170.19L433.772 173.838L429.896 173.572H428.794L428.68 182.844L428.832 189H424.082L424.272 183.3L424.196 173.572H423.094L419.142 173.838L418.838 173.458L419.104 169.81H433.772L434.038 170.19ZM450.734 185.124L451.038 185.428L450.696 189H437.548L437.738 183.3L437.548 169.81H450.886L451.152 170.19L450.848 173.724L445.908 173.534H442.336L442.26 177.41L445.68 177.448L448.986 177.334L449.252 177.676L448.948 181.286L445.338 181.172H442.184L442.146 182.844L442.222 185.276H445.566L450.734 185.124ZM466.316 181.438C468.014 183.895 469.597 186.049 471.066 187.898L471.028 188.43C469.458 188.911 467.912 189.203 466.392 189.304L465.708 188.848C464.29 186.391 463.188 184.377 462.402 182.806H459.476V182.844L459.666 189H454.878L455.068 183.3L454.878 169.81L463.162 169.772C465.316 169.772 466.975 170.279 468.14 171.292C469.331 172.28 469.926 173.699 469.926 175.548C469.926 176.739 469.61 177.853 468.976 178.892C468.343 179.905 467.456 180.754 466.316 181.438ZM459.552 179.158L462.402 179.31C463.264 179.031 463.897 178.626 464.302 178.094C464.708 177.562 464.91 176.878 464.91 176.042C464.91 175.13 464.644 174.459 464.112 174.028C463.58 173.572 462.744 173.319 461.604 173.268L459.666 173.344L459.552 179.158ZM479.404 182.844L479.594 189H474.806L474.996 183.3L474.806 169.81H479.67L479.404 182.844ZM493.332 169.506C496.22 169.506 498.449 170.329 500.02 171.976C501.59 173.623 502.376 175.953 502.376 178.968C502.376 182.261 501.514 184.82 499.792 186.644C498.094 188.443 495.688 189.342 492.572 189.342C489.709 189.342 487.492 188.506 485.922 186.834C484.351 185.137 483.566 182.755 483.566 179.69C483.566 176.447 484.414 173.939 486.112 172.166C487.809 170.393 490.216 169.506 493.332 169.506ZM492.914 173.382C491.343 173.382 490.216 173.813 489.532 174.674C488.873 175.51 488.544 176.967 488.544 179.044C488.544 180.716 488.683 182.033 488.962 182.996C489.266 183.933 489.734 184.605 490.368 185.01C491.026 185.415 491.9 185.618 492.99 185.618C494.586 185.618 495.713 185.2 496.372 184.364C497.056 183.528 497.398 182.059 497.398 179.956C497.398 178.284 497.246 176.979 496.942 176.042C496.638 175.079 496.169 174.395 495.536 173.99C494.902 173.585 494.028 173.382 492.914 173.382ZM517.602 181.438C519.299 183.895 520.882 186.049 522.352 187.898L522.314 188.43C520.743 188.911 519.198 189.203 517.678 189.304L516.994 188.848C515.575 186.391 514.473 184.377 513.688 182.806H510.762V182.844L510.952 189H506.164L506.354 183.3L506.164 169.81L514.448 169.772C516.601 169.772 518.26 170.279 519.426 171.292C520.616 172.28 521.212 173.699 521.212 175.548C521.212 176.739 520.895 177.853 520.262 178.892C519.628 179.905 518.742 180.754 517.602 181.438ZM510.838 179.158L513.688 179.31C514.549 179.031 515.182 178.626 515.588 178.094C515.993 177.562 516.196 176.878 516.196 176.042C516.196 175.13 515.93 174.459 515.398 174.028C514.866 173.572 514.03 173.319 512.89 173.268L510.952 173.344L510.838 179.158ZM539.277 185.124L539.581 185.428L539.239 189H526.091L526.281 183.3L526.091 169.81H539.429L539.695 170.19L539.391 173.724L534.451 173.534H530.879L530.803 177.41L534.223 177.448L537.529 177.334L537.795 177.676L537.491 181.286L533.881 181.172H530.727L530.689 182.844L530.765 185.276H534.109L539.277 185.124ZM550.223 169.544C552.047 169.544 553.795 169.861 555.467 170.494L554.745 174.75L554.061 174.94C553.251 174.332 552.465 173.876 551.705 173.572C550.945 173.268 550.249 173.116 549.615 173.116C548.906 173.116 548.349 173.293 547.943 173.648C547.538 173.977 547.335 174.383 547.335 174.864C547.335 175.396 547.589 175.839 548.095 176.194C548.602 176.523 549.4 176.916 550.489 177.372C551.629 177.853 552.554 178.297 553.263 178.702C553.998 179.107 554.619 179.677 555.125 180.412C555.657 181.121 555.923 182.021 555.923 183.11C555.923 184.199 555.632 185.225 555.049 186.188C554.492 187.125 553.631 187.885 552.465 188.468C551.325 189.051 549.907 189.342 548.209 189.342C547.297 189.342 546.297 189.241 545.207 189.038C544.143 188.861 543.105 188.569 542.091 188.164L542.737 183.68L543.231 183.338C544.067 184.098 545.005 184.706 546.043 185.162C547.082 185.618 548.007 185.846 548.817 185.846C549.527 185.846 550.097 185.669 550.527 185.314C550.983 184.959 551.211 184.516 551.211 183.984C551.211 183.427 550.945 182.983 550.413 182.654C549.907 182.299 549.109 181.907 548.019 181.476C546.879 180.995 545.942 180.551 545.207 180.146C544.498 179.715 543.877 179.133 543.345 178.398C542.839 177.663 542.585 176.751 542.585 175.662C542.585 174.522 542.889 173.483 543.497 172.546C544.131 171.609 545.017 170.874 546.157 170.342C547.323 169.81 548.678 169.544 550.223 169.544ZM560.42 183.87C561.205 183.87 561.813 184.098 562.244 184.554C562.7 185.01 562.928 185.643 562.928 186.454C562.928 187.315 562.687 187.999 562.206 188.506C561.724 189.013 561.066 189.266 560.23 189.266C559.394 189.266 558.748 189.038 558.292 188.582C557.861 188.126 557.646 187.48 557.646 186.644C557.646 185.808 557.886 185.137 558.368 184.63C558.874 184.123 559.558 183.87 560.42 183.87Z" fill="#2E2354"/>
<path d="M75.8703 0.221051C97.5478 0.221051 114.692 5.62979 127.302 16.4447C139.912 27.1192 146.219 46.323 146.219 66.2671L101.377 70.1617C101.377 61.7345 99.109 47.2714 94.5752 42.3555C90.183 37.4397 83.8759 34.983 75.6584 34.983C66.1665 34.9831 59.1524 37.9318 54.6186 43.83C50.2266 49.7288 48.0293 57.947 48.0291 68.4806V81.9653C48.0291 92.3589 50.2265 100.576 54.6186 106.616C59.1525 112.515 66.0255 115.463 75.2347 115.463C84.302 115.463 91.1753 113.145 95.8507 108.511C100.525 103.876 101.377 89.5551 101.377 81.1286L146.219 85.0232C146.219 104.827 140.052 123.891 127.726 134.426C115.541 144.959 98.2555 150.225 75.8703 150.225C50.9356 150.225 32.0216 143.906 19.1286 131.267C6.37713 118.626 0 99.9428 0 75.223C8.34898e-05 50.5033 6.37721 31.8245 19.1286 19.1837C32.0216 6.54304 50.9346 0.221244 75.8703 0.221051Z" fill="#9E321A"/>
<path d="M143.786 150.224V134.783L212.36 2.42657H225.633L230.057 4.63251L238.905 37.7216L245.541 132.577V150.224H207.936L205.724 101.694L201.3 86.2523H194.663L165.906 139.195V150.224H143.786Z" fill="#2E2354"/>
<path d="M329.088 0C350.765 0 367.91 5.40874 380.52 16.2237C393.129 26.8982 399.437 46.1019 399.437 66.0461L354.594 69.9407C354.594 61.5134 352.327 47.0503 347.793 42.1344C343.401 37.2187 337.094 34.762 328.876 34.762C319.384 34.7621 312.37 37.7107 307.836 43.6089C303.444 49.5078 301.247 57.726 301.247 68.2595V81.7443C301.247 92.1378 303.444 100.355 307.836 106.395C312.37 112.294 319.243 115.242 328.452 115.242C337.52 115.242 344.393 112.924 349.068 108.289C353.743 103.655 354.594 89.334 354.594 80.9075L399.437 84.8021C399.437 104.606 393.27 123.67 380.944 134.204C368.759 144.738 351.473 150.004 329.088 150.004C304.153 150.004 285.239 143.685 272.346 131.045C259.595 118.405 253.218 99.7218 253.218 75.0019C253.218 50.2823 259.595 31.6034 272.346 18.9626C285.239 6.32198 304.152 0.000192648 329.088 0Z" fill="#9E321A"/>
<path fill-rule="evenodd" clip-rule="evenodd" d="M545.244 19.4924C531.512 6.64509 512.045 0.220635 486.844 0.220635C461.646 0.220922 442.181 6.64569 428.449 19.4924C414.858 32.1985 408.061 50.904 408.061 75.6103C408.061 100.317 414.858 119.096 428.449 131.944C442.181 144.648 461.646 151 486.844 151C512.045 151 531.512 144.576 545.244 131.728C558.977 118.881 565.844 100.175 565.844 75.6103C565.844 51.0452 558.977 32.3397 545.244 19.4924ZM518.419 50.7504C505.648 42.8298 497.111 37.8526 481.828 29.6303C469.673 34.8718 461.771 37.1549 451.218 37.5234C452.248 55.3645 451.926 67.0079 449.433 85.5241C454.831 90.9562 458.854 95.9683 461.868 101.888C464.56 107.176 466.346 112.993 467.757 120.147C490.028 113.284 503.391 111.38 525.56 108.682C518.271 89.2733 517.832 73.9506 518.419 50.7504Z" fill="#9E321A"/>
</svg>
