<svg width="260" height="373" viewBox="0 0 260 373" fill="none" xmlns="http://www.w3.org/2000/svg">
<path d="M131.444 32.7463L96.4123 51.7536L80.4002 69.253L72.8587 97.5769L76.803 129.949L94.1201 153.598L120.855 170.3L119.915 165.303L120.011 160.111L104.102 149.651L95.447 126.443L91.3111 104.454L90.9423 79.6879L101.307 54.9722L116.376 43.8593L131.444 32.7463Z" fill="#92410B"/>
<path d="M167.796 9.35157L131.444 32.7463L116.376 43.8593L101.116 65.3565L96.9654 88.9033L101.286 123.275L106.741 140.876L120.107 154.919L120.298 144.534L109.948 123.715L107.316 109.723L106.38 93.3415L114.673 69.0154L122.775 55.0735L136.339 35.9649L167.796 9.35157Z" fill="#92410B"/>
<path d="M154.04 38.8445L167.796 9.35157L151.784 26.8509L137.843 43.9606L126.726 64.6785L119.001 80.6193L114.85 104.166L115.787 120.547L121.457 139.29L136.517 71.1157L143.299 61.5614L149.513 60.3924L154.04 38.8445Z" fill="#92410B"/>
<path d="M80.4002 69.253L67.0273 77.9773L56.4779 90.3098L51.7672 99.4745L56.6478 148.228L73.589 169.877L121.795 175.298L91.105 160.374L71.7163 137.115L66.4524 109.13L80.4002 69.253Z" fill="#92410B"/>
<path d="M47.0564 108.639L30.2851 144.908L30.4695 157.291L27.8304 166.066L41.0044 190.494L59.8328 199.37L76.2136 206.637L104.087 195.186L126.69 178.516L128.762 178.127L121.795 175.298L109.366 177.636L73.2093 179.262L60.4076 168.217L50.4331 149.397L51.7672 99.4745L47.0564 108.639Z" fill="#92410B"/>
<path d="M25.1912 174.841L28.5751 192.832L33.0906 205.435L40.9972 213.262L71.6873 228.185L96.546 223.51L113.686 212.007L130.833 177.737L128.762 178.127L111.054 198.015L77.7176 214.633L42.8844 200.489L27.8304 166.066L25.1912 174.841Z" fill="#92410B"/>
<path d="M37.606 218.039L53.0433 231.692L71.4957 238.57L84.677 240.23L105.393 236.333L120.837 227.219L129.315 215.276L132.898 200.115L134.976 176.958L121.972 210.448L109.727 225.17L77.3344 235.402L37.606 218.039Z" fill="#92410B"/>
<path d="M173.251 26.9523L167.796 9.35157L163.27 30.8995L156.296 50.8381L151.961 62.0017L153.089 67.9985L161.943 58.0545L168.725 48.5002L173.251 26.9523Z" fill="#92410B"/>
<path d="M186.71 44.1515L173.251 26.9523L173.996 53.7177L167.214 63.272L153.089 67.9985L156.097 83.9899L153.938 105.093L172.102 89.2581L178.508 77.7049L186.71 44.1515Z" fill="#92410B"/>
<path d="M201.487 63.0344L187.001 44.5227L187.17 78.1452L179.444 94.086L153.938 105.093L150.052 143.077L148.794 151.592L164.553 140.35L181.317 126.848L197.145 96.9656L200.352 79.8052L201.487 63.0344Z" fill="#92410B"/>
<path d="M224.827 95.898L214.852 77.0777L201.487 63.0344L205.239 105.791L191.89 126.042L179.43 139.621L166.433 150.344L148.794 151.592L146.278 168.623L165.594 167.059L183.942 163.608L195.431 156.273L206.169 144.94L217.661 126.221L223.883 102.284L224.827 95.898Z" fill="#92410B"/>
<path d="M241.009 136.317L239.697 117.937L235.369 106.333L224.827 95.898L223.685 135.436L214.831 145.38L202.21 158.102L183.374 171.994L167.098 175.055L152.93 173.581L146.278 168.623L139.12 176.178L151.733 186.224L169.73 189.048L188.83 189.594L206.722 182.09L221.414 168.978L235.731 153.867L241.009 136.317Z" fill="#92410B"/>
<path d="M224.223 218.121L234.588 193.405L242.13 165.081L246.088 151.919L241.009 136.317L236.483 157.865L232.524 171.027L217.831 184.139L206.154 190.475L192.405 197.2L175.833 200.318L159.828 195.049L148.342 191.001L139.12 176.178L134.976 176.958L146.079 201.775L156.997 214.209L179.969 222.306C183.672 222.989 191.493 224.278 193.15 223.966L205.579 221.628L223.011 219.015L224.223 218.121Z" fill="#92410B"/>
<path d="M132.898 200.115L135.53 214.107L144 224.932L160.757 234.198L183.352 240.296L204.068 236.4L209.155 229.234L223.011 219.015L198.045 227.184L181.472 230.302L162.706 225.553L153.23 216.987L139.864 202.944L134.976 176.958L132.898 200.115Z" fill="#92410B"/>
<path d="M167.796 9.35157L131.444 32.7463M167.796 9.35157L173.251 26.9523M167.796 9.35157L154.04 38.8445L149.513 60.3924M167.796 9.35157L163.27 30.8995L156.296 50.8381L151.961 62.0017M167.796 9.35157L151.784 26.8509L137.843 43.9606L126.726 64.6785L119.001 80.6193L114.85 104.166L115.787 120.547L121.457 139.29M167.796 9.35157L136.339 35.9649L122.775 55.0735L114.673 69.0154L106.38 93.3415L107.316 109.723L109.948 123.715L120.298 144.534M131.444 32.7463L96.4123 51.7536L80.4002 69.253M131.444 32.7463L116.376 43.8593M80.4002 69.253L67.0273 77.9773L56.4779 90.3098L51.7672 99.4745M80.4002 69.253L72.8587 97.5769L76.803 129.949L94.1201 153.598L120.855 170.3M80.4002 69.253L66.4524 109.13L71.7163 137.115L91.105 160.374L121.795 175.298M37.606 218.039L53.0433 231.692L71.4957 238.57L84.677 240.23L105.393 236.333L120.837 227.219L129.315 215.276L132.898 200.115M37.606 218.039L33.0906 205.435M37.606 218.039L77.3344 235.402L109.727 225.17L121.972 210.448L134.976 176.958M132.898 200.115L135.53 214.107L144 224.932L160.757 234.198L183.352 240.296L204.068 236.4L209.155 229.234L223.011 219.015M132.898 200.115L134.976 176.958M241.009 136.317L246.088 151.919L242.13 165.081L234.588 193.405L224.223 218.121L223.011 219.015M241.009 136.317L239.697 117.937L235.369 106.333L224.827 95.898M241.009 136.317L235.731 153.867L221.414 168.978L206.722 182.09L188.83 189.594L169.73 189.048L151.733 186.224L139.12 176.178M241.009 136.317L236.483 157.865L232.524 171.027L217.831 184.139L206.154 190.475L192.405 197.2L175.833 200.318L159.828 195.049L148.342 191.001L139.12 176.178M224.827 95.898L214.852 77.0777L201.487 63.0344M224.827 95.898L223.883 102.284L217.661 126.221L206.169 144.94L195.431 156.273L183.942 163.608L165.594 167.059L146.278 168.623M224.827 95.898L223.685 135.436L214.831 145.38L202.21 158.102L183.374 171.994L167.098 175.055L152.93 173.581L146.278 168.623M201.487 63.0344L200.352 79.8052L197.145 96.9656L181.317 126.848L164.553 140.35L148.794 151.592M201.487 63.0344L205.239 105.791L191.89 126.042L179.43 139.621L166.433 150.344L148.794 151.592M201.487 63.0344L187.001 44.5227M173.251 26.9523L168.725 48.5002L161.943 58.0545L153.089 67.9985M173.251 26.9523L173.996 53.7177L167.214 63.272L153.089 67.9985M173.251 26.9523L186.71 44.1515M149.513 60.3924L151.961 62.0017M149.513 60.3924L143.299 61.5614L136.517 71.1157L121.457 139.29M151.961 62.0017L153.089 67.9985M120.298 144.534L121.457 139.29M120.298 144.534L120.107 154.919M121.795 175.298L128.762 178.127M121.795 175.298L120.855 170.3M121.795 175.298L73.589 169.877L56.6478 148.228L51.7672 99.4745M121.795 175.298L109.366 177.636L73.2093 179.262L60.4076 168.217L50.4331 149.397L51.7672 99.4745M128.762 178.127L111.054 198.015L77.7176 214.633L42.8844 200.489L27.8304 166.066M128.762 178.127L130.833 177.737M128.762 178.127L126.69 178.516M139.12 176.178L146.278 168.623M139.12 176.178L134.976 176.958M146.278 168.623L148.794 151.592M120.107 154.919L106.741 140.876L101.286 123.275L96.9654 88.9033L101.116 65.3565L116.376 43.8593M120.107 154.919L120.011 160.111M116.376 43.8593L101.307 54.9722L90.9423 79.6879L91.3111 104.454L95.447 126.443L104.102 149.651L120.011 160.111M120.011 160.111L119.915 165.303L120.855 170.3M51.7672 99.4745L47.0564 108.639L30.2851 144.908L30.4695 157.291L27.8304 166.066M126.69 178.516L104.087 195.186L76.2136 206.637L59.8328 199.37L41.0044 190.494L27.8304 166.066M126.69 178.516L130.833 177.737M27.8304 166.066L25.1912 174.841L28.5751 192.832L33.0906 205.435M130.833 177.737L113.686 212.007L96.546 223.51L71.6873 228.185L40.9972 213.262L33.0906 205.435M130.833 177.737L134.976 176.958M134.976 176.958L146.079 201.775L156.997 214.209L179.969 222.306C183.672 222.989 191.493 224.278 193.15 223.966M134.976 176.958L139.864 202.944L153.23 216.987L162.706 225.553L181.472 230.302L198.045 227.184L223.011 219.015M153.089 67.9985L156.097 83.9899L153.938 105.093M153.938 105.093L172.102 89.2581L178.508 77.7049L186.71 44.1515M153.938 105.093L179.444 94.086L187.17 78.1452L187.001 44.5227M153.938 105.093L150.052 143.077L148.794 151.592M193.15 223.966C194.807 223.654 202.127 222.277 205.579 221.628M193.15 223.966L205.579 221.628M205.579 221.628L223.011 219.015M186.71 44.1515L186.993 42.9944L187.001 44.5227M186.71 44.1515L187.001 44.5227M126.506 166.133L126.13 164.134L128.577 165.743M138.751 151.412L137.055 153.8M130.28 140.587L130.656 142.586L132.352 140.198M143.653 131.863L144.029 133.862" stroke="#92410B" stroke-width="0.02"/>
<path fill-rule="evenodd" clip-rule="evenodd" d="M84.4854 268.039L82.9286 268.01C81.2254 275.941 81.268 293.032 81.5323 302.32C81.6807 307.532 81.8138 314.584 81.2946 319.673C79.1472 340.721 83.9506 336.82 92.5796 335.728C99.2035 334.89 119.064 333.175 123.332 330.862L122.977 327.861C120.837 326.276 111.936 327.218 108.039 327.268C103.094 327.332 97.0853 328.491 92.1901 327.694L92.9175 303.766C96.1561 303.097 108.714 301.964 110.511 300.432C110.278 298.269 110.258 298.33 107.895 298.116C104.426 297.802 98.6892 298.551 93.0674 298.158C92.5742 294.885 92.9425 290.064 92.3669 286.467C91.8917 283.497 90.7447 279.424 90.5957 276.508C97.3791 274.389 108.312 272.973 115.851 272.653C117.08 270.779 118.898 268.562 113.502 269.316C109.138 269.927 104.904 269.726 100.471 269.473C97.6585 269.312 89.9872 269.898 86.0072 268.808C83.7257 268.184 85.1743 268.557 84.4854 268.039Z" fill="#92410B"/>
<path fill-rule="evenodd" clip-rule="evenodd" d="M94.3014 279.047C96.8891 278.451 95.6916 279.276 96.4547 277.478C95.5771 276.564 96.1601 276.913 94.4323 276.508C93.0005 278.214 92.5242 278.109 92.8482 281.493C93.0889 284.011 93.0747 285.269 95.3471 285.974L94.3014 279.047Z" fill="#92410B"/>
<path fill-rule="evenodd" clip-rule="evenodd" d="M106.294 302.704C106.55 303.373 105.974 305.151 110.343 303.602C109.85 303.184 109.057 301.165 106.294 302.704Z" fill="#92410B"/>
<path fill-rule="evenodd" clip-rule="evenodd" d="M112.803 299.217C112.457 300.397 112.409 301.234 111.917 302.435C113.481 302.153 113.268 302.783 113.733 301.348C114.234 299.801 113.01 299.416 112.803 299.217Z" fill="#92410B"/>
<path fill-rule="evenodd" clip-rule="evenodd" d="M188.721 272.442L187.571 273.052C187.418 275.593 187.904 278.491 188.024 280.927C188.151 283.52 187.523 287.292 187.378 290.067L188.656 289.654C190.378 282.276 189.537 278.738 188.721 272.442Z" fill="#92410B"/>
<path fill-rule="evenodd" clip-rule="evenodd" d="M135.779 277.651C134.466 278.744 134.734 279.709 135.075 280.938C135.149 281.206 135.227 281.487 135.292 281.784C135.499 282.718 135.492 283.44 135.486 283.989C135.475 285.052 135.471 285.464 137.034 285.494C137.685 284.068 136.725 278.819 135.779 277.651Z" fill="#92410B"/>
<path fill-rule="evenodd" clip-rule="evenodd" d="M163.961 286.321C161.922 287.614 161.337 292.983 163.534 294.033C165.078 292.349 164.094 292.579 163.991 290.598C163.901 288.872 164.655 288.111 163.961 286.321Z" fill="#92410B"/>
<path fill-rule="evenodd" clip-rule="evenodd" d="M158.061 300.915C157.897 302.661 160.464 307.528 162.121 307.829C162.331 305.255 159.989 301.55 158.061 300.915Z" fill="#92410B"/>
<path fill-rule="evenodd" clip-rule="evenodd" d="M135.318 324.687C134.121 325.709 133.813 331.97 134.89 333.484C135.796 331.762 136.519 326.72 135.318 324.687Z" fill="#92410B"/>
<path fill-rule="evenodd" clip-rule="evenodd" d="M136.612 287.774C136.509 287.921 136.425 288.024 136.357 288.108C136.126 288.391 136.069 288.461 136.033 289.33C135.98 290.602 136.119 290.663 136.336 290.758C136.418 290.794 136.511 290.834 136.609 290.947C137.343 289.829 137.364 288.769 136.612 287.774Z" fill="#92410B"/>
<path fill-rule="evenodd" clip-rule="evenodd" d="M98.5335 250.73C97.0885 252.244 97.4793 250.557 92.9111 255.202C91.0238 257.121 89.9009 258.552 88.0188 260.66C86.4015 262.471 84.9636 265.746 88.7808 266.484C91.4996 267.01 91.5785 265.193 94.6074 262.19C95.2937 260.759 97.1574 258.112 98.3355 257.143L100.227 258.999C101.087 259.906 100.931 260.042 102.075 261.046C104.296 262.997 103.808 262.962 106.727 264.223C108.568 263.458 109.163 263 109.526 260.803C108.698 259.788 109.296 260.341 108.198 259.58C105.786 257.909 106.611 257.513 104.815 255.577C104.336 255.061 104.102 254.97 103.453 254.346C100.832 251.829 100.78 251.018 98.5335 250.73Z" fill="#92410B"/>
<path fill-rule="evenodd" clip-rule="evenodd" d="M45.1878 275.029C45.7917 276.562 45.2129 275.372 45.9869 276.78C47.2326 279.046 49.6913 283.196 52.1326 283.843C52.0339 282.108 50.4581 280.008 49.5076 278.727C48.0615 276.777 48.206 275.305 45.1878 275.029Z" fill="#92410B"/>
<path fill-rule="evenodd" clip-rule="evenodd" d="M68.233 289.1C66.6477 289.841 67.3361 288.924 65.7643 290.624C64.7911 291.677 64.9678 291.594 64.2807 292.892C63.3318 294.686 62.0478 295.54 62.0681 297.759C63.336 297.358 64.4136 295.876 65.828 293.988C67.0294 292.384 67.6814 291.068 68.233 289.1Z" fill="#92410B"/>
<path fill-rule="evenodd" clip-rule="evenodd" d="M36.6047 330.98C37.8727 329.39 37.8781 330.018 38.4423 327.757C36.6037 327.155 34.4904 329.819 33.6044 331.318L33.3676 332.73C33.5076 332.79 33.4716 332.987 33.526 333.115C36.0324 333.886 35.1035 332.863 36.6047 330.98Z" fill="#92410B"/>
<path fill-rule="evenodd" clip-rule="evenodd" d="M63.7865 305.608C64.4786 306.746 63.9076 306.1 65.1153 306.759C65.3804 306.105 65.7452 305.919 65.1777 304.336C64.6064 302.742 63.389 300.433 61.6492 300.26L63.7865 305.608Z" fill="#92410B"/>
<path fill-rule="evenodd" clip-rule="evenodd" d="M69.4902 315.463C69.5558 317.819 70.5401 319.286 72.8056 319.823L72.2612 315.634L69.4902 315.463Z" fill="#92410B"/>
<path fill-rule="evenodd" clip-rule="evenodd" d="M137.117 268.838C138.613 268.733 139.902 268.642 140.915 268.062C141.89 268.254 145.651 267.956 149.226 267.673C151.818 267.467 154.313 267.27 155.581 267.272C160.303 267.28 163.172 272.292 162.104 275.989L161.444 291.031C161.42 291.282 161.399 291.521 161.378 291.75C160.981 296.148 160.934 296.667 155.641 300.06C155.699 302.056 156.039 302.258 156.511 302.539C156.787 302.703 157.108 302.894 157.443 303.484C157.58 303.726 157.912 304.678 158.225 305.576C158.467 306.273 158.699 306.938 158.818 307.211C159.217 308.118 159.652 308.482 160.159 308.907C160.468 309.166 160.804 309.448 161.176 309.889C162.546 311.517 163.154 313.894 163.761 316.268C164.186 317.931 164.611 319.593 165.297 320.997C166.145 322.729 167.711 328.356 168.856 332.77C168.777 332.827 168.702 332.88 168.631 332.93C168.278 333.181 168.009 333.372 167.681 333.654C167.444 333.856 167.242 334.052 167.048 334.24C166.336 334.927 165.727 335.516 163.923 336.002C161.913 334.789 160.908 331.404 159.933 328.119C159.234 325.766 158.551 323.464 157.524 322.048C155.831 319.713 154.625 316.748 153.439 313.83C150.816 307.38 148.287 301.162 140.797 302.502C139.922 302.658 139.081 302.614 138.243 302.57C137.154 302.514 136.068 302.457 134.916 302.839C134.287 303.374 133.993 311.425 133.709 319.214C133.493 325.115 133.283 330.866 132.937 333.087C132.269 337.376 127.723 335.18 126.254 334.47C126.141 334.415 126.045 334.369 125.972 334.336C125.963 332.2 125.684 330.689 125.4 329.149C125.186 327.988 124.969 326.81 124.862 325.334C124.644 322.342 124.478 318.564 124.48 315.581C124.482 312.251 124.82 308.825 125.158 305.406C125.452 302.421 125.746 299.441 125.816 296.536C125.938 294.232 125.871 291.992 125.804 289.738C125.727 287.124 125.649 284.491 125.863 281.716C125.888 281.397 125.912 281.004 125.939 280.556C126.142 277.192 126.533 270.74 128.867 269.727C130.746 269.66 131.891 269.488 133.264 269.281C133.782 269.203 134.333 269.119 134.968 269.035C135.722 268.935 136.441 268.885 137.117 268.838ZM134.091 281.536C134.425 284.998 134.787 288.754 134.316 291.175C134.512 291.472 134.555 291.364 134.574 291.368C134.594 291.373 134.589 291.494 134.696 292.282C134.74 292.604 134.771 293.547 134.784 293.94L134.785 293.966C134.809 294.65 134.817 295.333 134.825 296.017C134.832 296.609 134.84 297.201 134.857 297.795L134.783 300.081C136.935 300.064 139.511 299.552 142.032 299.051C143.816 298.696 145.572 298.347 147.131 298.183C158.256 297.011 158.276 294.407 158.308 290.145C158.312 289.618 158.316 289.065 158.342 288.487C158.384 287.523 158.467 286.581 158.55 285.644C158.652 284.484 158.754 283.33 158.777 282.152C158.857 278.036 158.762 277.92 158.324 277.385C158.147 277.169 157.914 276.885 157.614 276.24C156.645 274.157 156.184 273.007 155.337 272.492C153.919 271.629 151.419 272.544 143.644 273.834C140.893 274.29 139.347 274.338 138.305 274.369C136.484 274.425 136.199 274.434 133.711 276.492C133.742 277.925 133.912 279.689 134.091 281.536ZM135.075 280.938C135.149 281.206 135.227 281.487 135.292 281.784C135.499 282.718 135.492 283.44 135.486 283.989C135.475 285.052 135.471 285.464 137.034 285.494C137.685 284.068 136.725 278.819 135.779 277.651C134.466 278.744 134.734 279.709 135.075 280.938ZM136.357 288.108C136.126 288.391 136.069 288.461 136.033 289.33C135.98 290.602 136.119 290.663 136.336 290.758C136.418 290.794 136.511 290.834 136.609 290.947C137.343 289.829 137.364 288.769 136.612 287.774C136.509 287.921 136.425 288.024 136.357 288.108Z" fill="#92410B"/>
<path fill-rule="evenodd" clip-rule="evenodd" d="M218.803 268.373C219.559 266.679 212.923 266.64 209.956 266.471C196.568 265.706 196.832 265.441 183.626 266.356C180.715 266.558 181.331 266.106 179.471 268.024C178.557 268.967 177.813 269.57 177.264 271.395C176.889 272.645 176.889 274.941 176.657 276.555C174.882 288.918 171.496 294.002 173.526 307.721C174.147 313.821 174.243 317.585 174.244 323.835C174.244 330.543 174.245 334.892 182.298 334.709C193.738 334.448 205.541 333.859 216.108 333.603C218.086 331.075 220.561 329.355 220.006 324.864C222.033 323.987 221.556 319.564 221.849 317.422C222.14 315.298 222.435 311.302 223.081 309.903C225.653 310.139 222.503 307.829 223.456 306.441C223.624 303.837 222.432 299.517 222.343 298.504C222.184 296.69 223.638 296.869 223.456 294.286C220.82 291.504 222.698 292.769 222.343 288.065C221.979 283.248 220.712 280.124 219.924 275.265C219.096 270.158 220.648 270.09 218.803 268.373ZM211.605 323.771C212.494 318.145 211.323 312.895 213.011 309.466L212.68 289.979C213.135 283.678 212.563 277.566 212.109 271.435C207.21 271.395 189.24 270.039 186.035 271.759C184.135 274.768 186.753 280.122 186.317 284.362C184.684 300.212 183.489 295.222 185.716 312.864C186.323 317.682 186.184 321.721 186.168 326.529L210.428 328.403C210.541 328.021 210.81 327.856 210.688 327.765C210.565 327.672 210.869 327.479 210.905 327.373L211.605 323.771Z" fill="#92410B"/>
<path d="M38.2302 322.428C40.7301 320.987 42.3052 317.866 43.4066 316.394C44.6006 314.798 47.4304 311.281 49.1982 310.51C51.4811 315.396 54.2621 319.848 57.3452 324.402C59.6721 327.84 63.9983 336.78 68.3936 335.919C70.5769 334.904 72.9565 333.099 74.2927 331.577C75.2994 328.816 68.4302 321.603 66.1416 315.087C62.6314 305.093 56.9273 302.811 58.7937 299.002C60.2599 296.009 66.4463 288.459 69.319 284.292C70.2791 282.899 71.2605 281.934 72.2822 280.669L77.6792 273.503C78.1408 272.988 78.7474 272.357 79.2174 271.772C80.5157 270.155 79.6914 271.884 80.1827 270.025C76.2905 266.712 74.0269 270.94 72.1429 272.837L60.2811 286.12C58.1379 288.379 56.391 290.916 54.255 292.518C51.764 290.968 41.6283 273.304 39.4613 271.717C34.2862 267.927 26.2801 271.433 25.0962 275.382C26.2075 277.296 26.8274 276.27 28.4451 278.374C31.035 281.742 43.901 301.916 45.0986 304.932C43.7834 305.809 42.782 306.779 41.7414 308.066C39.4204 310.937 34.2903 315.997 32.6951 318.811C31.0591 319.964 30.8088 320.665 29.4597 322.619C26.37 327.094 21.2479 329.057 21 335.11C26.705 335.354 29.8004 336.24 32.1278 331.361C35.2564 324.801 37.4315 325.065 38.2302 322.428Z" fill="#92410B"/>
<path d="M0.91 355.8H8.54V358.42H3.9V361.08H8.19V363.69H3.9V369H0.91V355.8ZM13.5194 355.8H16.5094V366.38H21.2994V369H13.5194V355.8ZM28.6216 362.39C28.6216 363.143 28.7749 363.827 29.0816 364.44C29.3949 365.047 29.8249 365.53 30.3716 365.89C30.9249 366.25 31.5649 366.43 32.2916 366.43C33.0182 366.43 33.6549 366.25 34.2016 365.89C34.7549 365.53 35.1849 365.047 35.4916 364.44C35.8049 363.827 35.9616 363.143 35.9616 362.39C35.9616 361.637 35.8049 360.957 35.4916 360.35C35.1849 359.743 34.7549 359.26 34.2016 358.9C33.6549 358.533 33.0182 358.35 32.2916 358.35C31.5649 358.35 30.9249 358.533 30.3716 358.9C29.8249 359.26 29.3949 359.743 29.0816 360.35C28.7749 360.957 28.6216 361.637 28.6216 362.39ZM25.5116 362.39C25.5116 361.43 25.6816 360.537 26.0216 359.71C26.3616 358.877 26.8382 358.15 27.4516 357.53C28.0649 356.91 28.7849 356.427 29.6116 356.08C30.4382 355.733 31.3316 355.56 32.2916 355.56C33.2649 355.56 34.1616 355.733 34.9816 356.08C35.8082 356.427 36.5249 356.91 37.1316 357.53C37.7449 358.15 38.2182 358.877 38.5516 359.71C38.8916 360.537 39.0616 361.43 39.0616 362.39C39.0616 363.357 38.8982 364.257 38.5716 365.09C38.2449 365.917 37.7782 366.643 37.1716 367.27C36.5649 367.89 35.8482 368.373 35.0216 368.72C34.1949 369.067 33.2849 369.24 32.2916 369.24C31.2782 369.24 30.3549 369.067 29.5216 368.72C28.6949 368.373 27.9816 367.89 27.3816 367.27C26.7816 366.643 26.3182 365.917 25.9916 365.09C25.6716 364.257 25.5116 363.357 25.5116 362.39ZM43.7153 355.8H49.0953C49.862 355.8 50.5453 355.96 51.1453 356.28C51.7453 356.6 52.2186 357.063 52.5653 357.67C52.9186 358.27 53.0953 358.987 53.0953 359.82C53.0953 360.653 52.9453 361.337 52.6453 361.87C52.352 362.397 51.9986 362.793 51.5853 363.06C51.172 363.32 50.7886 363.477 50.4353 363.53L53.6453 369H50.2853L47.4253 363.76H46.7053V369H43.7153V355.8ZM46.7053 361.69H48.0253C48.5586 361.69 49.0253 361.56 49.4253 361.3C49.8253 361.04 50.0253 360.58 50.0253 359.92C50.0253 359.26 49.8286 358.803 49.4353 358.55C49.042 358.29 48.5786 358.16 48.0453 358.16H46.7053V361.69ZM58.6113 355.8H67.0413V358.42H61.5913V361.11H66.9913V363.65H61.5913V366.38H67.0413V369H58.6113V355.8ZM77.1048 355.56C77.9248 355.56 78.6415 355.65 79.2548 355.83C79.8682 356.01 80.3615 356.2 80.7348 356.4C81.1082 356.6 81.3348 356.733 81.4148 356.8L79.9748 359.21C79.8682 359.13 79.6848 359.013 79.4248 358.86C79.1715 358.707 78.8682 358.57 78.5148 358.45C78.1682 358.33 77.8048 358.27 77.4248 358.27C76.9115 358.27 76.4948 358.363 76.1748 358.55C75.8615 358.73 75.7048 359 75.7048 359.36C75.7048 359.607 75.7882 359.83 75.9548 360.03C76.1282 360.223 76.3882 360.41 76.7348 360.59C77.0882 360.763 77.5348 360.953 78.0748 361.16C78.5682 361.34 79.0315 361.553 79.4648 361.8C79.8982 362.047 80.2782 362.34 80.6048 362.68C80.9382 363.013 81.2015 363.4 81.3948 363.84C81.5882 364.28 81.6848 364.78 81.6848 365.34C81.6848 366.007 81.5482 366.587 81.2748 367.08C81.0015 367.567 80.6282 367.97 80.1548 368.29C79.6882 368.61 79.1548 368.847 78.5548 369C77.9615 369.16 77.3448 369.24 76.7048 369.24C75.7982 369.24 74.9848 369.137 74.2648 368.93C73.5515 368.723 72.9748 368.5 72.5348 368.26C72.0948 368.02 71.8315 367.86 71.7448 367.78L73.2348 365.27C73.3148 365.33 73.4682 365.427 73.6948 365.56C73.9282 365.693 74.2115 365.833 74.5448 365.98C74.8782 366.12 75.2315 366.24 75.6048 366.34C75.9848 366.44 76.3582 366.49 76.7248 366.49C77.3382 366.49 77.7982 366.373 78.1048 366.14C78.4115 365.9 78.5648 365.587 78.5648 365.2C78.5648 364.913 78.4682 364.657 78.2748 364.43C78.0815 364.203 77.7915 363.99 77.4048 363.79C77.0182 363.583 76.5348 363.367 75.9548 363.14C75.3748 362.907 74.8315 362.623 74.3248 362.29C73.8248 361.957 73.4182 361.54 73.1048 361.04C72.7915 360.54 72.6348 359.92 72.6348 359.18C72.6348 358.44 72.8415 357.8 73.2548 357.26C73.6748 356.713 74.2248 356.293 74.9048 356C75.5915 355.707 76.3248 355.56 77.1048 355.56ZM101.769 366.28C102.383 366.28 102.939 366.19 103.439 366.01C103.946 365.83 104.323 365.653 104.569 365.48L105.849 368.02C105.536 368.287 104.999 368.557 104.239 368.83C103.486 369.103 102.589 369.24 101.549 369.24C100.576 369.24 99.6626 369.07 98.8092 368.73C97.9559 368.39 97.2026 367.913 96.5492 367.3C95.9026 366.68 95.3926 365.957 95.0192 365.13C94.6526 364.297 94.4692 363.393 94.4692 362.42C94.4692 361.447 94.6526 360.543 95.0192 359.71C95.3859 358.87 95.8926 358.14 96.5392 357.52C97.1926 356.9 97.9459 356.42 98.7992 356.08C99.6592 355.733 100.576 355.56 101.549 355.56C102.589 355.56 103.486 355.697 104.239 355.97C104.999 356.243 105.536 356.513 105.849 356.78L104.569 359.32C104.323 359.14 103.946 358.963 103.439 358.79C102.939 358.61 102.383 358.52 101.769 358.52C101.089 358.52 100.496 358.627 99.9892 358.84C99.4826 359.047 99.0592 359.333 98.7192 359.7C98.3792 360.067 98.1259 360.48 97.9592 360.94C97.7926 361.4 97.7092 361.883 97.7092 362.39C97.7092 362.903 97.7926 363.393 97.9592 363.86C98.1259 364.32 98.3792 364.733 98.7192 365.1C99.0592 365.467 99.4826 365.757 99.9892 365.97C100.496 366.177 101.089 366.28 101.769 366.28ZM113.36 362.39C113.36 363.143 113.513 363.827 113.82 364.44C114.133 365.047 114.563 365.53 115.11 365.89C115.663 366.25 116.303 366.43 117.03 366.43C117.757 366.43 118.393 366.25 118.94 365.89C119.493 365.53 119.923 365.047 120.23 364.44C120.543 363.827 120.7 363.143 120.7 362.39C120.7 361.637 120.543 360.957 120.23 360.35C119.923 359.743 119.493 359.26 118.94 358.9C118.393 358.533 117.757 358.35 117.03 358.35C116.303 358.35 115.663 358.533 115.11 358.9C114.563 359.26 114.133 359.743 113.82 360.35C113.513 360.957 113.36 361.637 113.36 362.39ZM110.25 362.39C110.25 361.43 110.42 360.537 110.76 359.71C111.1 358.877 111.577 358.15 112.19 357.53C112.803 356.91 113.523 356.427 114.35 356.08C115.177 355.733 116.07 355.56 117.03 355.56C118.003 355.56 118.9 355.733 119.72 356.08C120.547 356.427 121.263 356.91 121.87 357.53C122.483 358.15 122.957 358.877 123.29 359.71C123.63 360.537 123.8 361.43 123.8 362.39C123.8 363.357 123.637 364.257 123.31 365.09C122.983 365.917 122.517 366.643 121.91 367.27C121.303 367.89 120.587 368.373 119.76 368.72C118.933 369.067 118.023 369.24 117.03 369.24C116.017 369.24 115.093 369.067 114.26 368.72C113.433 368.373 112.72 367.89 112.12 367.27C111.52 366.643 111.057 365.917 110.73 365.09C110.41 364.257 110.25 363.357 110.25 362.39ZM142.574 355.8V369H139.594V361.23L139.724 359.02L139.214 361.55L136.994 367.94H134.064L131.854 361.55L131.354 359.02L131.484 361.23V369H128.494V355.8H132.694L135.354 364.61L135.534 365.66L135.714 364.61L138.374 355.8H142.574ZM161.062 355.56C161.882 355.56 162.599 355.65 163.212 355.83C163.825 356.01 164.319 356.2 164.692 356.4C165.065 356.6 165.292 356.733 165.372 356.8L163.932 359.21C163.825 359.13 163.642 359.013 163.382 358.86C163.129 358.707 162.825 358.57 162.472 358.45C162.125 358.33 161.762 358.27 161.382 358.27C160.869 358.27 160.452 358.363 160.132 358.55C159.819 358.73 159.662 359 159.662 359.36C159.662 359.607 159.745 359.83 159.912 360.03C160.085 360.223 160.345 360.41 160.692 360.59C161.045 360.763 161.492 360.953 162.032 361.16C162.525 361.34 162.989 361.553 163.422 361.8C163.855 362.047 164.235 362.34 164.562 362.68C164.895 363.013 165.159 363.4 165.352 363.84C165.545 364.28 165.642 364.78 165.642 365.34C165.642 366.007 165.505 366.587 165.232 367.08C164.959 367.567 164.585 367.97 164.112 368.29C163.645 368.61 163.112 368.847 162.512 369C161.919 369.16 161.302 369.24 160.662 369.24C159.755 369.24 158.942 369.137 158.222 368.93C157.509 368.723 156.932 368.5 156.492 368.26C156.052 368.02 155.789 367.86 155.702 367.78L157.192 365.27C157.272 365.33 157.425 365.427 157.652 365.56C157.885 365.693 158.169 365.833 158.502 365.98C158.835 366.12 159.189 366.24 159.562 366.34C159.942 366.44 160.315 366.49 160.682 366.49C161.295 366.49 161.755 366.373 162.062 366.14C162.369 365.9 162.522 365.587 162.522 365.2C162.522 364.913 162.425 364.657 162.232 364.43C162.039 364.203 161.749 363.99 161.362 363.79C160.975 363.583 160.492 363.367 159.912 363.14C159.332 362.907 158.789 362.623 158.282 362.29C157.782 361.957 157.375 361.54 157.062 361.04C156.749 360.54 156.592 359.92 156.592 359.18C156.592 358.44 156.799 357.8 157.212 357.26C157.632 356.713 158.182 356.293 158.862 356C159.549 355.707 160.282 355.56 161.062 355.56ZM173.133 362.39C173.133 363.143 173.287 363.827 173.593 364.44C173.907 365.047 174.337 365.53 174.883 365.89C175.437 366.25 176.077 366.43 176.803 366.43C177.53 366.43 178.167 366.25 178.713 365.89C179.267 365.53 179.697 365.047 180.003 364.44C180.317 363.827 180.473 363.143 180.473 362.39C180.473 361.637 180.317 360.957 180.003 360.35C179.697 359.743 179.267 359.26 178.713 358.9C178.167 358.533 177.53 358.35 176.803 358.35C176.077 358.35 175.437 358.533 174.883 358.9C174.337 359.26 173.907 359.743 173.593 360.35C173.287 360.957 173.133 361.637 173.133 362.39ZM170.023 362.39C170.023 361.43 170.193 360.537 170.533 359.71C170.873 358.877 171.35 358.15 171.963 357.53C172.577 356.91 173.297 356.427 174.123 356.08C174.95 355.733 175.843 355.56 176.803 355.56C177.777 355.56 178.673 355.733 179.493 356.08C180.32 356.427 181.037 356.91 181.643 357.53C182.257 358.15 182.73 358.877 183.063 359.71C183.403 360.537 183.573 361.43 183.573 362.39C183.573 363.357 183.41 364.257 183.083 365.09C182.757 365.917 182.29 366.643 181.683 367.27C181.077 367.89 180.36 368.373 179.533 368.72C178.707 369.067 177.797 369.24 176.803 369.24C175.79 369.24 174.867 369.067 174.033 368.72C173.207 368.373 172.493 367.89 171.893 367.27C171.293 366.643 170.83 365.917 170.503 365.09C170.183 364.257 170.023 363.357 170.023 362.39ZM190.239 358.42H187.089V355.8H196.369V358.42H193.229V369H190.239V358.42ZM203.79 355.8H206.76L211.97 369H208.78L207.82 366.35H202.74L201.77 369H198.57L203.79 355.8ZM203.74 363.73H206.83L205.3 359.4H205.27L203.74 363.73ZM225.329 369.41C225.709 369.41 226.049 369.363 226.349 369.27C226.656 369.183 226.903 369.09 227.089 368.99C227.276 368.89 227.383 368.823 227.409 368.79L228.419 370.75C228.219 371.083 227.856 371.4 227.329 371.7C226.809 372 226.149 372.15 225.349 372.15C224.856 372.15 224.436 372.093 224.089 371.98C223.749 371.867 223.433 371.733 223.139 371.58C222.846 371.433 222.526 371.303 222.179 371.19C221.839 371.077 221.419 371.02 220.919 371.02C220.513 371.02 220.153 371.08 219.839 371.2C219.526 371.327 219.279 371.453 219.099 371.58C218.926 371.707 218.833 371.783 218.819 371.81L217.599 370.37C218.006 369.897 218.549 369.507 219.229 369.2C219.909 368.9 220.683 368.75 221.549 368.75C222.103 368.75 222.583 368.807 222.989 368.92C223.396 369.027 223.779 369.133 224.139 369.24C224.506 369.353 224.903 369.41 225.329 369.41ZM218.129 362.39C218.129 363.143 218.283 363.827 218.589 364.44C218.903 365.047 219.333 365.53 219.879 365.89C220.433 366.25 221.073 366.43 221.799 366.43C222.526 366.43 223.163 366.25 223.709 365.89C224.263 365.53 224.693 365.047 224.999 364.44C225.313 363.827 225.469 363.143 225.469 362.39C225.469 361.637 225.313 360.957 224.999 360.35C224.693 359.743 224.263 359.26 223.709 358.9C223.163 358.533 222.526 358.35 221.799 358.35C221.073 358.35 220.433 358.533 219.879 358.9C219.333 359.26 218.903 359.743 218.589 360.35C218.283 360.957 218.129 361.637 218.129 362.39ZM215.019 362.39C215.019 361.43 215.189 360.537 215.529 359.71C215.869 358.877 216.346 358.15 216.959 357.53C217.573 356.91 218.293 356.427 219.119 356.08C219.946 355.733 220.839 355.56 221.799 355.56C222.773 355.56 223.669 355.733 224.489 356.08C225.316 356.427 226.033 356.91 226.639 357.53C227.253 358.15 227.726 358.877 228.059 359.71C228.399 360.537 228.569 361.43 228.569 362.39C228.569 363.357 228.406 364.257 228.079 365.09C227.753 365.917 227.286 366.643 226.679 367.27C226.073 367.89 225.356 368.373 224.529 368.72C223.703 369.067 222.793 369.24 221.799 369.24C220.786 369.24 219.863 369.067 219.029 368.72C218.203 368.373 217.489 367.89 216.889 367.27C216.289 366.643 215.826 365.917 215.499 365.09C215.179 364.257 215.019 363.357 215.019 362.39ZM240.679 355.8H243.669V363.91C243.669 364.997 243.455 365.94 243.029 366.74C242.602 367.533 241.992 368.15 241.199 368.59C240.405 369.023 239.459 369.24 238.359 369.24C237.252 369.24 236.299 369.023 235.499 368.59C234.699 368.15 234.085 367.533 233.659 366.74C233.239 365.94 233.029 364.997 233.029 363.91V355.8H236.009V363.75C236.009 364.35 236.102 364.857 236.289 365.27C236.482 365.683 236.755 365.997 237.109 366.21C237.462 366.417 237.879 366.52 238.359 366.52C238.832 366.52 239.242 366.417 239.589 366.21C239.935 365.997 240.202 365.683 240.389 365.27C240.582 364.857 240.679 364.35 240.679 363.75V355.8ZM248.783 355.8H257.213V358.42H251.763V361.11H257.163V363.65H251.763V366.38H257.213V369H248.783V355.8Z" fill="#92410B"/>
</svg>
