<svg width="698" height="557" viewBox="0 0 698 557" fill="none" xmlns="http://www.w3.org/2000/svg">
<path fill-rule="evenodd" clip-rule="evenodd" d="M697.113 391.729L696.634 402.771C696.465 404.834 696.907 406.393 696.754 408.555C696.603 410.674 696.085 411.456 695.95 413.723C695.568 420.116 695.389 418.601 694.175 423.577C693.623 425.842 692.968 431.144 693.64 432.202C693.88 437.677 691.899 442.504 689.869 447.21L685.274 460.968C682.513 465.551 684.131 462.229 683.501 467.885C682.694 475.134 677.792 481.29 674.75 487.774C669.91 498.092 668.908 500.447 660.714 510.399L654.491 517.366C647.373 524.78 649.851 522.834 640.519 527.597C628.377 533.793 626.363 534.129 610.74 534.715C597.254 535.22 590.485 537.407 576.877 534.004C553.034 528.041 533.724 514.963 527.096 491.26C521.74 472.107 519.668 470.372 518.509 444.442C516.912 408.725 515.871 411.278 520.434 374.212C521.589 364.823 524.65 353.471 526.427 343.372L542.144 313.443C543.645 308.42 536.866 304.225 538.7 300.063C541.802 293.024 545.397 274.163 550.569 265.758C552.402 262.781 553.403 262.627 554.803 259.945C557.738 257.554 557.014 255.65 557.945 251.892C558.84 248.282 558.008 250.829 560.278 248.318C562.111 246.29 562.361 245.721 562.388 245.62C562.39 245.648 562.41 245.702 562.511 245.738C562.619 245.774 562.817 245.789 563.18 245.728C563.239 245.718 563.302 245.706 563.369 245.692C564.437 245.469 566.658 244.694 571.27 242.467C574.226 241.039 576.738 240.379 579.774 239.234C581.829 238.459 595.698 228.111 604.129 228.072L615.903 228.166C629.639 227.654 625.459 229.603 636.501 227.784C644.288 226.5 648.027 231.158 654.453 233.197C657.139 234.049 660.71 234.916 663.485 235.835C665.384 236.462 665.304 236.512 666.936 238.287C667.738 239.158 669.108 240.654 669.733 241.356L677.048 251.614C678.888 253.738 678.613 252.886 680.09 254.452C682.007 256.485 682.775 259.94 684.409 261.877C686.522 264.383 688.845 263.334 689.492 267.961C690.214 273.129 688.799 273.52 690.757 278.242C692.16 281.625 692.982 283.557 692.638 287.419C692.219 292.122 693.28 292.602 694.145 296.828C696.026 306.016 694.58 314.782 695.258 319.084C696.157 324.789 696.257 323.336 694.91 329.266C693.725 334.475 696.269 332.912 696.681 338.263C696.953 341.814 696.208 345.544 696.395 349.288C696.632 354.033 697.766 355.043 697.09 359.877C696.386 364.905 695.961 364.504 696.944 369.329C697.886 373.95 697.029 386.212 697.113 391.729ZM562.388 245.62C562.395 245.593 562.386 245.599 562.388 245.62ZM513.174 451.092C513.538 452.896 512.975 453.953 512.908 456.03C512.713 462.163 514.303 471.798 511.727 476.708C506.903 485.899 511.224 491.402 508.639 495.95C508.215 496.697 505.645 503.223 505.475 504.248C505.157 506.157 505.493 507.897 504.984 509.562C504.535 511.031 503.497 511.896 503.523 513.134C503.619 517.689 504.548 517.002 502.976 522.397C500.923 529.442 503.018 536.998 497.305 545.934C496.24 547.598 491.5 553.181 488.731 554.651C486.95 555.596 482.049 557.352 479.251 556.608C478.673 556.04 470.149 541.682 469.124 538.58C467.833 534.677 467.446 530.774 466.969 526.319C465.391 511.568 467.894 512.255 460.983 517.205C459.315 518.401 457.819 520.084 455.901 521.317C452.73 523.357 446.62 525.623 443.02 526.761C437.748 528.427 433.202 528.44 428.152 530.292C412.517 536.025 396.226 533.215 382.55 527.016C371.869 522.175 376.012 524.445 365.281 516.75C363.853 515.727 362.447 513.653 361.11 512.335C355.065 506.373 351.185 498.481 347.466 489.251C343.319 478.958 342.879 470.522 341.218 458.698C338.984 442.809 343.564 439.931 344.347 426.688C344.744 419.98 342.837 398.767 343.2 391.833C343.806 380.29 344.025 368.646 345.902 357.737C348.588 342.117 350.6 338.957 352.878 327.892L359.883 298.26C361.673 292.855 361.535 288.331 362.83 282.831L366.483 264.145C366.735 262.031 366.206 262.39 366.522 260.781C366.558 260.598 367.583 258.055 367.981 257.556C368.896 256.409 369.188 256.901 370.576 255.658C371.757 254.6 370.181 254.89 373.223 253.613C375.36 252.716 375.004 253.249 377.116 252.833C378.718 252.516 381.225 250.793 383.294 250.029C389.243 247.829 386.736 245.404 391.179 244.048C399.576 241.486 393.994 243.027 397.62 241.287L407.34 237.852C409.599 236.966 412.008 236.841 414.481 235.812C420.312 233.385 428.995 230.118 435.356 229.058C441.714 228 446.034 228.294 452.444 227.775C457.795 227.341 462.064 225.505 468.595 226.217C470.381 227.942 469.645 228.326 472.059 229.18C474.489 230.039 474.197 229.101 476.123 231.312C477.953 233.414 479.069 237.053 480.795 238.743C481.92 239.844 483.309 239.977 484.343 241.472C485.17 242.668 485.307 244.525 485.968 245.635C486.538 246.592 492.229 249.631 495.191 261.074C495.908 263.843 496.986 267.727 497.577 270.667C498.024 272.891 497.356 274.557 497.474 276.092C497.615 277.918 500.266 283.211 500.687 284.826C501.19 286.756 500.627 287.627 501.897 288.881C502.69 293.73 502.001 293.628 500.871 297.983C499.888 301.767 501.825 303.453 501.823 306.454C501.819 310.633 499.088 310.991 498.404 314.04C497.873 316.405 498.512 316.46 497.516 318.683C495.398 323.412 492.734 325.603 490.534 328.367C489.155 330.099 489.506 331.15 484.104 333.409C480.309 334.996 474.776 335.8 471.275 333.067C469.769 331.892 470.989 332.739 469.921 331.514L468.309 329.965C469.875 323.857 470.713 323.912 470.42 316.69C470.142 309.833 466.102 297.963 463.378 291.653C458.786 281.012 460.234 281.473 452.607 270.281C450.196 266.743 448.066 268.334 440.216 266.548C432.836 264.87 419.246 264.577 410.868 263.834C404.967 263.31 402.625 264.522 401.608 269.898C400.716 274.616 399.384 278.062 399.234 283.534L398.208 297.56C396.094 307.635 399.136 321.597 395.702 327.116L392.865 340.231C392.383 343.159 391.782 343.127 391.748 347.137C391.717 350.8 392.001 351.022 391.039 354.437L386.896 382.254C386.745 384.692 385.771 386.045 385.531 388.46C385.278 391.018 385.495 393.959 385.287 396.384C384.814 401.881 385.511 405.881 385.203 411.353C384.204 429.11 386.787 426.506 387.04 431.394C387.225 434.959 386.198 433.802 387.541 437.817C388.482 440.626 388.861 441.332 388.962 444.532C389.037 446.904 388.606 450.101 388.846 451.517C389.578 455.828 390.975 459.968 391.699 464.646C392.362 468.928 393.745 474.279 394.225 478.262C394.581 481.217 393.925 482.859 395.409 484.971C398.046 488.72 396.317 487.332 396.318 491.009C396.318 492.73 400.705 499.318 402.034 501.282C402.932 502.608 404.359 504.687 405.608 505.712C406.168 506.172 409.855 508.725 410.341 508.954C414.166 510.755 420.156 510.749 424.621 510.224C439.154 508.514 437.162 506.037 443.879 497.271C446.939 493.276 451.372 477.667 451.341 472.067C449.493 471.087 447.73 470.986 445.701 470.386C440.813 468.94 435.539 464.593 427.856 464.314C426.535 464.267 425.14 464.375 423.87 464.061C421.331 463.432 423.012 463.306 421.185 462.762C418.941 462.093 418.05 464.036 416.099 460.868C413.832 457.188 412.565 452.643 413.303 447.413C414.461 439.197 423.385 424.579 427.301 421.092C430.157 418.548 428.533 419.032 430.73 416.514C433.561 413.269 436.264 414.456 439.675 409.542C443.308 410.008 447.324 413.149 455.964 412.78C463.475 412.459 467.418 412.278 473.817 414.068C479.088 415.543 484.675 415.633 490.336 416.506L506.891 419.518C507.88 420.667 510.254 425.191 509.98 427.769C509.677 430.626 508.637 435.521 508.927 438.182L513.174 451.092ZM319.703 484.836C319.53 494.838 320.86 491.207 317.438 497.24L312.829 506.529C311.254 509.881 309.215 512.435 307.534 515.908C305.857 519.372 306.946 522.509 304.679 526.971C302.918 530.436 293.729 535.125 286.703 536.175C282.498 536.505 266.678 535.041 263.166 534.062C258.838 532.856 259.824 530.253 257.748 526.919C254.008 520.912 257.206 521.479 252.929 519.193L253.397 518.176C254.36 515.607 254.18 516.9 253.496 514.462C252.924 512.425 252.507 510.591 251.805 508.637C250.608 505.301 248.794 502.087 248.052 497.624C246.784 490.003 245.59 493.314 243.536 487.615C239.607 476.716 240.62 477.505 235.297 465.866L223.644 440.898C222.257 437.598 223.707 437.24 220.668 435.92C219.433 438.862 221.762 447.237 221.835 451.906C221.924 457.677 221.243 464.206 221.018 470.275C220.848 474.851 221.978 473.704 222.091 478.236C222.17 481.42 222.209 484.646 222.249 487.803C222.326 493.84 222.902 500.794 221.798 506.245C219.481 517.678 224.732 511.405 221.003 521.007C219.928 523.773 214.986 531.596 213.341 532.439C210.028 534.138 201.07 531.55 197.876 530.387C195.878 529.66 192.701 528.091 191.039 527.674C188.408 527.014 185.134 527.612 182.456 526.849C181.252 526.096 178.976 519.778 178.637 518.092C174.598 497.984 178.219 495.439 176.525 480.467C175.017 467.142 176.321 455.986 175.639 442.571L175.224 431.46C175.153 422.99 175.694 414.804 176.022 406.534C176.331 398.745 175.128 386.988 176.409 380.624C177.386 375.769 178.882 363.811 180.544 359.114L185.431 350.858C189.545 344.737 199.918 332.221 208.512 338.83C211.407 341.056 208.18 339.93 212.959 341.062C214.885 341.518 216.74 342.267 217.938 342.441C222.089 343.042 223.3 340.967 226.139 344.701C227.757 346.83 229.717 350.676 231.224 352.084C234.636 355.274 233.798 354.08 236.709 359.833C238.634 363.637 240.139 364.142 241.698 367.987C245.338 376.961 245.177 371.364 246.848 376.077C247.596 378.185 247.064 378.791 247.837 380.859C249.861 386.277 248.928 379.516 252.872 395.617C254.294 401.421 255.856 404.324 258.732 409.58C261.472 414.587 261.761 412.25 264.717 422.699C266.407 428.677 272.968 432.721 273.546 440.168C273.804 443.486 273.279 447.678 275.703 451.414C276.53 449.873 279.801 398.21 279.77 392.641C279.738 387.181 281.047 382.584 280.886 377.997L282.348 334.154C282.917 316.901 282.593 299.494 282.948 282.065L283.957 255.732C284.453 250.924 289.264 240.421 291.452 236.671C293.579 231.632 301.043 227.205 306.781 222.996C310.174 220.506 319.729 210.305 325.456 217.777C327.651 220.64 326.023 226.968 326.91 229.946C327.798 232.925 330.958 234.022 332.226 238.144C334.145 244.387 332.445 245.763 332.238 251.326C332.134 254.11 332.78 255.728 332.837 257.941C332.891 260.031 332.348 261.497 332.219 263.777C331.964 268.256 333.672 271.808 333.859 276.922L332.397 302.786C330.346 309.784 332.653 308.383 332.061 314.775C331.033 325.892 331.916 333.412 330.631 340.378C329.695 345.458 330.462 349.498 330.177 354.591C329.955 358.58 328.656 362.3 328.36 366.535C328.089 370.42 328.837 374.364 328.157 379.751L325.879 404.373C324.741 422.612 320.363 413.324 324.775 426.403C326.31 430.952 323.333 431.941 324.607 437.46C326.337 444.95 326.689 456.304 325.296 463.281C324.96 464.963 324.011 467.404 323.561 468.951C322.703 471.903 323.412 471.48 322.849 474.16C321.793 479.194 319.83 477.472 319.703 484.836ZM158.445 501.427C159.954 508.05 159.131 517.876 158.954 524.652C154.511 525.454 155.4 524.754 153.612 528.016C149.688 535.172 146.492 530.728 141.366 532.15C137.022 533.355 138.676 532.775 134.5 530.528C130.641 528.451 124.888 527.574 121.042 525.706C114.424 522.491 111.699 524.391 104.426 523.788C98.1538 512.321 100.656 466.433 103.64 451.83C104.884 445.747 105.576 440.836 106.436 434.966C108.537 420.62 107.716 431.104 108.288 416.133C108.427 412.487 112.261 391.399 113.994 386.712C114.991 384.017 114.222 384.878 116.432 383.705C117.747 383.233 135.534 383.804 138.505 384.335C144.804 385.462 148.21 390.988 151.533 395.728C152.651 397.323 153.584 397.676 153.836 399.413C154.559 404.417 152.708 399.349 153.345 404.219C153.92 408.605 156.689 406.975 154.882 414.329C152.503 424.013 154.208 432.603 153.884 436.644C153.744 438.397 153.303 440.849 153.542 442.474C153.924 445.082 154.668 444.393 155.028 447.056C155.368 449.571 154.583 449.328 155.417 452.441C155.768 453.754 157.11 456.262 157.325 457.423C158.065 461.409 156.93 458.34 157.209 461.968C157.297 463.122 157.841 464.761 157.978 466.621C158.423 472.695 156.829 494.338 158.445 501.427ZM277.063 191.038C275.44 195.185 272.349 199.881 271.216 203.389L262.318 219.21C260.784 221.354 260.2 222.076 259 223.879C245.267 244.507 238.24 252.227 224.768 270.166C222.235 273.538 219.708 276.076 218.18 279.249C215.344 280.879 202.434 296.318 199.465 299.677L170.823 328.431C169.089 330.034 167.751 331.77 166.062 333.251C163.821 335.214 163.22 335.629 161.076 337.883L121.672 375.217C112.912 383.08 102.699 394.431 92.2983 403.342L66.1843 425.456C58.4382 432.14 60.126 424.008 62.8039 455.521C63.5509 464.314 62.6221 471.273 62.8627 479.044C63.1333 487.788 60.315 499.555 60.5112 501.297C60.8076 503.92 63.1723 504.364 60.7578 512.399C59.0424 518.108 61.122 518.71 60.8016 523.887C60.0654 524.423 58.4238 525.224 57.4596 525.881C56.9208 526.248 55.731 527.315 55.0632 527.829C47.7917 533.432 32.239 527.379 22.5729 527.429C14.003 527.474 11.4512 518.948 9.65416 511.324C0.13027 470.915 9.18375 444.621 4.32191 408.109C3.5485 402.302 3.4819 399.775 4.36331 394.493C5.15531 389.75 1.30688 342.421 0.884475 335.58C0.129068 323.341 0.943274 312.274 0.159066 300.354C-0.760142 282.3 2.56149 230.832 3.5545 209.62C4.62011 186.87 -0.700743 160.637 5.34491 140.671C7.44673 133.729 10.1816 128.6 10.1822 120.224C10.3892 120.324 10.6352 120.303 10.7588 120.603C10.88 120.898 11.1848 120.886 11.3204 120.981L15.2366 123.716C16.778 121.169 14.7956 122.494 17.1806 120.594C21.9039 122.697 26.1021 133.297 27.3777 134.993C29.3157 134.186 33.8986 127.067 35.1238 124.868C37.6522 120.331 40.267 117 42.1919 112.566C43.5323 111.968 49.1189 103.718 50.4791 101.934L77.9696 71.528C85.3509 63.8395 88.4781 61.6644 93.0351 57.0937C100.311 49.7957 137.545 26.4608 147.349 22.6196C150.787 21.2721 150.924 20.9068 153.695 19.1149C156.683 17.1818 156.662 17.0614 159.125 14.9138C162.551 11.9278 166.79 9.39987 171.28 7.42475C176.623 5.07593 199.248 0.370507 205.492 0.365117C222.857 0.351343 222.245 -1.74295 237.13 4.25426C251.251 9.94365 260.647 16.9488 270.234 28.4659C281.105 41.5252 290.966 40.5945 297.516 59.7066C298.495 62.5615 298.554 65.4553 299.278 68.2988C304.887 90.315 310.352 102.753 306.349 127.201C304.566 138.096 299.74 144.276 295.254 152.958C293.834 155.708 293.401 156.81 291.717 159.487C286.685 167.486 280.483 182.293 277.063 191.038Z" fill="#314028"/>
</svg>
