<svg width="140" height="45" viewBox="0 0 140 45" fill="none" xmlns="http://www.w3.org/2000/svg">
<path d="M40.2314 9.20996C41.8896 9.20996 43.3627 9.51576 44.6494 10.126C45.9492 10.7362 46.9711 11.6508 47.7139 12.8711C48.4567 14.0783 48.8281 15.6043 48.8281 17.4482V23.4971H41.8633V18.3232C41.8632 17.2759 41.7309 16.5731 41.4658 16.2148C41.2005 15.8434 40.7886 15.6572 40.2314 15.6572C39.5817 15.6573 39.1444 15.8966 38.9189 16.374C38.6935 16.8383 38.5801 17.4616 38.5801 18.2441V35.7744C38.5801 36.7428 38.7195 37.4263 38.998 37.8242C39.2898 38.222 39.7011 38.4208 40.2314 38.4209C40.8284 38.4209 41.2466 38.1754 41.4854 37.6846C41.7374 37.1938 41.8633 36.5571 41.8633 35.7744V29.4668H48.9072V36.0928C48.9072 39.1704 48.1312 41.406 46.5791 42.7988C45.0271 44.1782 42.8578 44.8682 40.0723 44.8682C37.5388 44.8681 35.4963 44.0784 33.9443 42.5C32.4056 40.9214 31.6358 38.7128 31.6357 35.874V19.7168C31.6357 16.3208 32.3057 13.7201 33.6455 11.916C34.9985 10.1121 37.194 9.21004 40.2314 9.20996ZM77.1572 9.20996C79.9826 9.20996 82.1248 9.98623 83.584 11.5381C85.0564 13.0901 85.7929 15.3654 85.793 18.3633V34.998C85.793 38.195 85.0502 40.6428 83.5645 42.3408C82.092 44.0255 79.9562 44.8682 77.1572 44.8682C74.3583 44.8682 72.2162 44.0254 70.7305 42.3408C69.258 40.6428 68.5215 38.195 68.5215 34.998V18.3633C68.5215 15.3654 69.2508 13.0901 70.71 11.5381C72.1824 9.98603 74.3317 9.20996 77.1572 9.20996ZM9.23242 33.3467L11.5215 0H18.1865L13.8691 44.5498H4.31836L0 0H6.66602L9.23242 33.3467ZM27.9062 44.5498H21.1406V9.52832H27.9062V44.5498ZM101.605 0.0224609C103.396 0.0224609 104.75 0.4335 105.665 1.25586C106.58 2.06505 107.191 3.20624 107.496 4.67871C107.814 6.1379 107.974 7.85644 107.974 19.3389C107.974 21.2488 107.728 22.7743 107.237 23.915C106.76 25.0559 105.851 25.8454 104.511 26.2832C105.612 26.5087 106.382 27.059 106.819 27.9346C107.27 28.7967 107.496 29.9175 107.496 31.2969V44.5498H100.591V30.8398C100.591 29.8184 100.379 29.188 99.9541 28.9492C99.5429 28.6972 98.8728 28.5713 97.9443 28.5713V44.5498H90.8604V8.68945H97.9844V22.502H99.6758C100.644 22.5018 101.128 21.4477 101.128 19.3389C101.128 17.9727 101.054 7.72055 100.842 7.29395C100.63 6.86952 100.2 6.74808 99.6162 6.74805H90.8604L62.6914 6.75684V44.5498H55.7373V6.75684H30.6357V0.0302734L90.8604 0.0224609H101.605ZM117.949 44.5498H111.185V9.52832H117.949V44.5498ZM139.588 44.5498H132.962L132.464 38.8984H128.246L127.808 44.5498H121.003L124.386 0.0195312H136.265L139.588 44.5498ZM77.2568 15.6572C76.0895 15.6572 75.5059 16.5394 75.5059 18.3037V35.376C75.5059 36.4637 75.638 37.2471 75.9033 37.7246C76.1686 38.1889 76.6067 38.4209 77.2168 38.4209C78.278 38.4209 78.8085 37.3929 78.8086 35.3369V18.2441C78.8086 16.5197 78.2915 15.6573 77.2568 15.6572ZM128.743 33.3066H131.927L130.395 5.98926H130.076L128.743 33.3066ZM27.9062 6.75781H21.1406V0.0322266L27.9062 0.03125V6.75781ZM117.895 6.72656H111.13V0.000976562L117.895 0V6.72656Z" fill="#1D1D1D"/>
</svg>
